<svg version="1.1" xmlns="http://www.w3.org/2000/svg" xmlns:xlink="http://www.w3.org/1999/xlink" width="600" height="600" viewBox="0 0 600 600"><defs/><g><path fill="rgb(240,60,80)" stroke="none" paint-order="stroke fill markers" d=" M 500 300 L 504.1421870151545 305.0114094055246 L 508.133590165197 310.2249476160255 L 511.9442385274473 315.63394626943557 L 515.5447668881884 321.2293065771105 L 518.9066759691494 326.9995632925915 L 522.0025851436437 332.93097270334846 L 524.8064752650987 339.0076238040684 L 527.2939193249786 345.2115715839325 L 529.4422987732205 351.522991144511 L 531.2310034711529 357.9203511614743 L 532.6416134031331 364.3806050142447 L 533.6580604473243 370.87939773481975 L 534.2667686964543 377.3912867719549 L 534.4567720242292 383.8899744312042 L 534.2198078103539 390.34854973629473 L 533.5503859647301 396.7397373640622 L 532.4458326271963 403.0361512346145 L 530.9063081608592 409.2105502911928 L 528.9347993023275 415.2360939808326 L 526.5370855786376 421.0865949476193 L 523.7216803459888 426.7367664750774 L 520.499747047223 432.1624622628043 L 516.8849915209752 437.3409061943888 L 512.8935314233042 442.25090984825295 L 508.5437440402215 446.873075619425 L 503.8560939747522 451.18998345725834 L 498.852942383051 455.18635938045736 L 493.5583396087851 458.84922410494096 L 487.99780322184677 462.16802031040027 L 482.19808360494403 465.13471727605486 L 476.18691934842866 467.74389183311666 L 469.99278480873807 469.99278480873807 L 463.6446322581452 471.88133237157274 L 457.17163110243416 473.41217193023954 L 450.60290666819304 474.5906224806354 L 443.96728106239027 475.42463954383766 L 437.29301858379813 475.92474508089526 L 430.6075781188469 476.1039330117885 L 423.9373748841226 475.97755120090295 L 417.3075537846273 475.563160998265 L 410.74177654201105 474.8803756423232 L 404.2620246113818 473.9506790341574 L 397.8884197502973 472.7972265826787 L 391.6390639306641 471.4446299938278 L 385.52990009516236 469.9187280323039 L 379.57459505632806 468.24634542047386 L 373.7844456205055 466.45504215449307 L 368.16830879263364 464.57285561121313 L 362.73255668342114 462.62803789024724 L 357.48105650017015 460.6487908829223 L 352.41517575864185 458.66300158331853 L 347.5338126082729 456.6979801559379 L 342.8334509191187 454.78020324976603 L 338.3082395384657 452.9350649998243 L 333.9500948904467 451.18663808521745 L 329.7488258654697 449.5574471178508 L 325.69227973001955 448.06825651933804 L 321.76650758349695 446.737874906249 L 317.9559476991937 445.5829778470877 L 314.24362491308466 444.6179506797389 L 310.61136406853063 443.85475288725263 L 307.04001538872456 443.3028053245937 L 303.5096895330927 442.968901371316 L 300 442.8571428571429 L 296.4903104669074 442.968901371316 L 292.9599846112755 443.3028053245937 L 289.3886359314694 443.85475288725263 L 285.75637508691534 444.6179506797389 L 282.0440523008063 445.5829778470877 L 278.2334924165031 446.737874906249 L 274.30772026998045 448.06825651933804 L 270.2511741345303 449.5574471178508 L 266.0499051095534 451.1866380852174 L 261.6917604615343 452.9350649998243 L 257.1665490808813 454.780203249766 L 252.46618739172712 456.6979801559379 L 247.58482424135815 458.66300158331853 L 242.51894349982985 460.6487908829223 L 237.2674433165789 462.62803789024724 L 231.83169120736642 464.5728556112131 L 226.21555437949456 466.45504215449307 L 220.42540494367205 468.24634542047386 L 214.47009990483764 469.9187280323039 L 208.36093606933593 471.4446299938278 L 202.11158024970274 472.7972265826787 L 195.73797538861828 473.95067903415736 L 189.258223457989 474.8803756423232 L 182.6924462153728 475.56316099826495 L 176.06262511587738 475.9775512009029 L 169.39242188115313 476.1039330117885 L 162.70698141620193 475.92474508089526 L 156.0327189376098 475.42463954383766 L 149.39709333180707 474.5906224806354 L 142.82836889756578 473.41217193023954 L 136.35536774185485 471.88133237157274 L 130.00721519126193 469.99278480873807 L 123.81308065157143 467.74389183311666 L 117.80191639505611 465.13471727605486 L 112.00219677815323 462.1680203104002 L 106.4416603912149 458.84922410494096 L 101.14705761694898 455.18635938045736 L 96.1439060252479 451.18998345725834 L 91.45625595977853 446.873075619425 L 87.10646857669568 442.25090984825295 L 83.11500847902485 437.3409061943888 L 79.50025295277703 432.16246226280435 L 76.27831965401123 426.7367664750774 L 73.4629144213624 421.08659494761935 L 71.06520069767257 415.2360939808327 L 69.09369183914086 409.2105502911928 L 67.55416737280368 403.0361512346145 L 66.44961403526986 396.7397373640622 L 65.78019218964604 390.3485497362948 L 65.54322797577083 383.88997443120434 L 65.73323130354575 377.3912867719549 L 66.34193955267565 370.8793977348198 L 67.35838659686698 364.3806050142447 L 68.76899652884714 357.92035116147434 L 70.55770122677944 351.5229911445111 L 72.70608067502133 345.2115715839326 L 75.19352473490133 339.0076238040684 L 77.99741485635622 332.93097270334846 L 81.09332403085054 326.9995632925915 L 84.45523311181151 321.22930657711055 L 88.05576147255269 315.6339462694356 L 91.866409834803 310.2249476160255 L 95.85781298484542 305.0114094055246 L 99.99999999999997 300 L 104.26265953667286 295.1949179963597 L 108.61540768312801 290.5978778850583 L 113.02805585597122 286.20812082956854 L 117.47087621930973 282.02245044528627 L 121.91486212966544 278.035293212905 L 126.33198115773135 274.2387829212038 L 130.69541830952213 270.6228682999479 L 134.97980716368644 267.1754427774812 L 139.16144675780913 263.8824950817631 L 143.21850219333524 260.72827920016874 L 147.13118708495705 257.6955020242853 L 150.88192615444075 254.76552683303487 L 154.45549645923955 251.9185906123984 L 157.83914595102087 249.13403307431622 L 161.02268827645835 246.39053512229947 L 163.9985729602154 243.66636441802626 L 166.76193034578404 240.9396256326186 L 169.3105909114818 238.18851291908 L 171.64507882412133 235.39156211898998 L 173.76857983929563 232.52790021722024 L 175.6868839025042 229.57748958316375 L 177.40830304711415 226.5213645855157 L 178.9435654210923 223.34185823954996 L 180.30568650228622 220.0228166404121 L 181.50981877958802 216.54979905228686 L 182.5730813824942 212.910261660285 L 183.51437133240853 209.09372314820664 L 184.3541582636903 205.09191043948277 L 185.11426461925288 200.89888312888957 L 185.81763346296032 196.51113533724748 L 186.48808616784186 191.92767393828993 L 187.15007233411907 187.1500723341191 L 187.8284143633184 182.18249919098605 L 188.5480491636268 177.03172178825594 L 189.3337694866823 171.7070838780417 L 190.2099673969321 166.220458198743 L 191.20038235154738 160.58617403025292 L 192.32785632187353 154.82092041953047 L 193.61409831698455 148.94362594026947 L 195.0794605767864 142.9753160772469 L 196.7427285871721 136.93894954244033 L 198.62092693409306 130.85923503404862 L 200.72914285838368 124.76243013919427 L 203.08036920026498 118.67612425448584 L 205.68536823331965 112.6290075540978 L 208.55255768421515 106.65062817109666 L 211.6879200185095 100.77113987308095 L 215.0949358465976 95.02104260669859 L 218.77454206942588 89.43091835635161 L 222.72511514328215 84.031164809714 L 226.94247959908526 78.85172934610387 L 231.41994170648792 73.92184586305433 L 236.14834792915934 69.26977693159006 L 241.1161675771601 64.92256372200677 L 246.3095988276987 60.905786069806084 L 251.71269705901832 57.2433349565587 L 257.30752422589893 53.957199563761606 L 263.0743178013521 51.067270920336625 L 268.9916776195073 48.59116400760368 L 275.03676878126043 46.54406001086011 L 281.18553862866366 44.93857021577654 L 287.4129456577573 43.784622842524755 L 293.69319812392774 43.08937389283432 L 299.99999999999994 42.85714285714283 L 306.3068018760722 43.08937389283426 L 312.5870543422426 43.784622842524755 L 318.8144613713362 44.93857021577651 L 324.96323121873945 46.54406001086011 L 331.00832238049264 48.59116400760365 L 336.9256821986478 51.0672709203366 L 342.692475774101 53.95719956376155 L 348.2873029409816 57.24333495655861 L 353.6904011723012 60.90578606980603 L 358.8838324228398 64.92256372200671 L 363.8516520708406 69.26977693159 L 368.58005829351197 73.92184586305427 L 373.05752040091465 78.85172934610381 L 377.2748848567178 84.03116480971391 L 381.22545793057407 89.43091835635153 L 384.90506415340235 95.0210426066985 L 388.31207998149046 100.77113987308087 L 391.4474423157848 106.65062817109654 L 394.31463176668035 112.62900755409771 L 396.919630799735 118.67612425448576 L 399.27085714161626 124.76243013919418 L 401.37907306590694 130.85923503404848 L 403.25727141282783 136.93894954244027 L 404.92053942321354 142.9753160772468 L 406.3859016830154 148.94362594026938 L 407.67214367812653 154.8209204195303 L 408.7996176484526 160.5861740302528 L 409.7900326030679 166.2204581987429 L 410.6662305133177 171.70708387804152 L 411.45195083637316 177.03172178825585 L 412.17158563668164 182.182499190986 L 412.8499276658809 187.15007233411905 L 413.5119138321581 191.9276739382899 L 414.1823665370397 196.51113533724742 L 414.88573538074706 200.89888312888945 L 415.64584173630965 205.09191043948266 L 416.4856286675915 209.09372314820646 L 417.4269186175058 212.91026166028502 L 418.49018122041196 216.54979905228686 L 419.6943134977138 220.02281664041206 L 421.05643457890767 223.3418582395499 L 422.59169695288585 226.52136458551564 L 424.31311609749577 229.5774895831637 L 426.2314201607044 232.5279002172202 L 428.35492117587864 235.39156211898995 L 430.6894090885181 238.18851291907993 L 433.2380696542159 240.9396256326185 L 436.00142703978446 243.6663644180262 L 438.9773117235417 246.3905351222995 L 442.16085404897916 249.13403307431622 L 445.5445035407604 251.91859061239836 L 449.11807384555914 254.7655268330348 L 452.8688129150429 257.6955020242853 L 456.7814978066647 260.7282792001687 L 460.83855324219087 263.88249508176307 L 465.02019283631347 267.1754427774811 L 469.3045816904777 270.6228682999478 L 473.66801884226857 274.23878292120366 L 478.0851378703345 278.03529321290506 L 482.52912378069027 282.02245044528627 L 486.97194414402884 286.2081208295686 L 491.3845923168718 290.59787788505827 L 495.7373404633271 295.19491799635966 L 500 299.99999999999994" fill-opacity="1"/></g></svg>