<svg version="1.1" xmlns="http://www.w3.org/2000/svg" xmlns:xlink="http://www.w3.org/1999/xlink" width="600" height="600" viewBox="0 0 600 600"><defs/><g><path fill="rgb(40,50,110)" stroke="none" paint-order="stroke fill markers" d=" M 500 300 L 506.21150904570766 305.06220841007433 L 511.65872641286694 310.39812645488166 L 515.7654819693681 315.9158181196377 L 518.0835934635845 321.47935916940173 L 518.3395192861118 326.92961118769244 L 516.462367440472 332.10915903917106 L 512.590330669742 336.88792163734985 L 507.0549582161625 341.185791916473 L 500.3450701192399 344.98898994994215 L 493.05430708652545 348.35758653394254 L 485.818048710868 351.42277954306417 L 479.24653669976544 354.3738424559756 L 473.86139074502546 357.4360453451836 L 470.04226964685677 360.8420969449524 L 467.9892634783913 364.8006096001502 L 467.70483869039185 369.46561866115246 L 468.99699684908126 374.91121664230815 L 471.5029910983676 381.1148737495305 L 474.7307291964993 387.9520579326032 L 478.11312087621616 395.20344656728696 L 481.06930213325313 402.57449266775444 L 483.0660285775378 409.725554870132 L 483.6726349802531 416.30941336417715 L 482.6037855974874 422.01194873943683 L 479.7456865273499 426.59119520029924 L 475.16332646842125 429.90997676213146 L 469.08843753659687 431.95791181247756 L 461.889982777499 432.85967531311053 L 454.0308463929921 432.8679218491216 L 446.0158228675605 432.34102768801466 L 438.3368227110078 431.7076041240135 L 431.4213562373095 431.4213562373095 L 425.58982152303855 431.9111146990491 L 421.0259841055803 433.5315961063299 L 417.7634366151958 436.5205503596577 L 415.68895828745497 440.96740354486417 L 414.561775593957 446.79734902237783 L 414.04597546271435 453.7731968728067 L 413.7519368936351 461.5153404501065 L 413.28177411716786 469.53815594872356 L 412.27351117121117 477.29924895015074 L 410.4390489758051 484.2564215766314 L 407.59188516405885 489.9262385333885 L 403.6618840190465 493.93774431780935 L 398.6960005715904 496.07527730467586 L 392.8455434057863 496.3054082216066 L 386.3421152240172 494.7846908444852 L 379.4656186611525 491.84697431412286 L 372.50851773308534 487.971263928706 L 365.7408195347475 483.73328210970374 L 359.37996838946935 479.74572978594733 L 353.5690736515179 476.59356949113294 L 348.36572985335096 474.7712905775595 L 343.7422859879469 474.6289944775544 L 339.5969574063881 476.33325880217046 L 335.7738309150111 479.8471929436678 L 332.0887546570469 484.9320498559787 L 328.3574547305236 491.1704314045349 L 324.4220528727691 498.008773578484 L 320.1724855448316 504.8146828782515 L 315.56009428630887 510.94305161930674 L 310.60176537692405 515.8038918976872 L 305.37429746596 518.9246077483931 L 300 520 L 294.62570253404 518.9246077483931 L 289.39823462307595 515.8038918976873 L 284.4399057136912 510.94305161930674 L 279.82751445516845 504.8146828782516 L 275.5779471272309 498.008773578484 L 271.64254526947644 491.17043140453495 L 267.9112453429531 484.9320498559787 L 264.22616908498895 479.8471929436678 L 260.4030425936119 476.33325880217046 L 256.25771401205316 474.6289944775544 L 251.63427014664907 474.7712905775595 L 246.43092634848213 476.5935694911329 L 240.6200316105307 479.74572978594733 L 234.25918046525254 483.73328210970374 L 227.49148226691472 487.971263928706 L 220.53438133884754 491.8469743141228 L 213.65788477598278 494.7846908444852 L 207.1544565942138 496.3054082216066 L 201.30399942840955 496.07527730467586 L 196.33811598095355 493.93774431780935 L 192.40811483594115 489.92623853338864 L 189.56095102419488 484.2564215766314 L 187.72648882878883 477.29924895015085 L 186.71822588283217 469.5381559487237 L 186.2480631063649 461.5153404501065 L 185.95402453728565 453.7731968728067 L 185.438224406043 446.7973490223779 L 184.31104171254506 440.9674035448642 L 182.23656338480427 436.52055035965776 L 178.97401589441972 433.53159610632986 L 174.41017847696145 431.9111146990491 L 168.57864376269052 431.4213562373095 L 161.66317728899224 431.7076041240135 L 153.9841771324396 432.3410276880147 L 145.96915360700785 432.8679218491217 L 138.110017222501 432.85967531311053 L 130.9115624634032 431.9579118124776 L 124.83667353157878 429.9099767621315 L 120.25431347265015 426.59119520029924 L 117.39621440251258 422.01194873943683 L 116.32736501974685 416.3094133641772 L 116.93397142246226 409.725554870132 L 118.9306978667469 402.57449266775444 L 121.88687912378387 395.20344656728696 L 125.26927080350072 387.95205793260334 L 128.49700890163243 381.11487374953043 L 131.00300315091877 374.91121664230815 L 132.29516130960812 369.4656186611525 L 132.01073652160875 364.8006096001502 L 129.95773035314332 360.8420969449524 L 126.13860925497457 357.4360453451836 L 120.75346330023461 354.3738424559756 L 114.18195128913194 351.42277954306417 L 106.94569291347455 348.3575865339426 L 99.65492988076016 344.98898994994215 L 92.94504178383758 341.18579191647314 L 87.409669330258 336.88792163734985 L 83.53763255952794 332.10915903917106 L 81.66048071388823 326.9296111876925 L 81.91640653641545 321.4793591694018 L 84.23451803063179 315.9158181196378 L 88.341273587133 310.39812645488166 L 93.78849095429226 305.06220841007433 L 100.00000000000003 300 L 106.33198156722597 295.24571700090945 L 112.14054393079797 290.7710567239145 L 116.84929929789206 286.48999267977075 L 120.00970279470579 282.2725030375775 L 121.34770544662777 277.965341108006 L 120.79176345455966 273.4169692570264 L 118.47927371416554 268.50316613322946 L 114.7408460548703 263.1496631100217 L 110.06421810382847 257.3484938871942 L 105.04180580870792 251.16551457263705 L 100.30762239269205 244.73767655310482 L 96.47040240688187 238.25997155419074 L 94.05011850781077 231.96334918562707 L 93.42464357364841 226.08615558806434 L 94.7921439444957 220.84259498615495 L 98.15302568587714 216.3922457151166 L 103.31309456766891 212.81469104031225 L 109.90727384899017 210.09283637741765 L 117.44100871829312 208.1075260707606 L 125.34461513687407 206.64475183688785 L 133.03450568976848 205.4152157758408 L 139.97458457742897 204.0844571928434 L 145.73120888037025 202.31036540933832 L 150.01594067646923 199.78385553159598 L 152.7117612667164 196.2679186331611 L 153.88031387616329 191.6302549651582 L 153.74986648595436 185.86527558022686 L 152.68580143240422 179.1023616476524 L 151.1473077903983 171.59878466761103 L 149.63537272557684 163.71744574920731 L 148.63798953042104 155.8913862291868 L 148.5786437626905 148.57864376269055 L 149.77360362821176 142.21228151846236 L 152.40240216677287 137.1511459643463 L 156.49429943368497 133.63701175706396 L 161.9316446219966 131.76322219976942 L 168.46913936170614 131.45877797173534 L 175.7662536657411 132.4901842805488 L 183.42866032649704 134.48141518947307 L 191.05368090932697 136.95031102770554 L 198.27446321637228 139.35782285026792 L 204.7979512985164 141.1649775765225 L 210.43260827214522 141.891442089904 L 215.10318928864734 141.16923857846734 L 218.85146870974773 138.7855568264698 L 221.82350603367337 134.7096909722294 L 224.2455896220212 129.10078856307302 L 226.39224571511653 122.29516130960832 L 228.55050311909002 114.77414439481032 L 230.98487817785949 107.11565603649538 L 233.90727222991273 99.93445754873264 L 237.45520274973296 93.81743519824937 L 241.68062686339158 89.26086425938362 L 246.55021402664127 86.6164931997368 L 251.95646134364017 86.05240678675904 L 257.7377021085597 87.53308078237555 L 263.70399915292626 90.82099290040213 L 269.66526494837876 95.49982741862243 L 275.4577827930827 101.0169597390001 L 280.9656294130074 106.74079220937287 L 286.1342688464419 112.02686894783065 L 290.97469564595684 116.28570941561833 L 295.5578060567951 119.04508026991144 L 299.99999999999994 120 L 304.4421939432048 119.0450802699115 L 309.0253043540431 116.28570941561836 L 313.86573115355804 112.02686894783068 L 319.03437058699257 106.7407922093729 L 324.54221720691726 101.01695973900013 L 330.3347350516212 95.49982741862246 L 336.2960008470736 90.82099290040213 L 342.26229789144026 87.53308078237558 L 348.0435386563597 86.05240678675906 L 353.44978597335864 86.6164931997368 L 358.31937313660836 89.26086425938362 L 362.544797250267 93.81743519824923 L 366.0927277700872 99.93445754873261 L 369.0151218221405 107.11565603649521 L 371.4494968809099 114.77414439481029 L 373.60775428488347 122.29516130960815 L 375.75441037797873 129.10078856307302 L 378.1764939663266 134.70969097222928 L 381.1485312902522 138.78555682646976 L 384.8968107113526 141.1692385784673 L 389.5673917278547 141.89144208990402 L 395.20204870148353 141.16497757652246 L 401.7255367836276 139.35782285026804 L 408.94631909067294 136.95031102770554 L 416.5713396735028 134.48141518947318 L 424.23374633425885 132.49018428054876 L 431.53086063829375 131.45877797173537 L 438.0683553780033 131.7632221997694 L 443.50570056631494 133.6370117570639 L 447.59759783322704 137.15114596434626 L 450.22639637178827 142.21228151846225 L 451.4213562373095 148.57864376269043 L 451.3620104695789 155.89138622918668 L 450.36462727442324 163.71744574920717 L 448.85269220960174 171.5987846676108 L 447.3141985675959 179.1023616476521 L 446.2501335140457 185.8652755802267 L 446.1196861238367 191.6302549651582 L 447.2882387332836 196.26791863316112 L 449.9840593235307 199.78385553159595 L 454.26879111962967 202.31036540933826 L 460.0254154225711 204.08445719284327 L 466.96549431023135 205.4152157758408 L 474.65538486312585 206.64475183688782 L 482.55899128170665 208.10752607076063 L 490.09272615100963 210.09283637741754 L 496.68690543233083 212.81469104031217 L 501.84697431412275 216.39224571511645 L 505.2078560555043 220.84259498615495 L 506.57535642635156 226.0861555880644 L 505.9498814921893 231.96334918562695 L 503.5295975931181 238.25997155419066 L 499.6923776073081 244.7376765531047 L 494.95819419129225 251.16551457263694 L 489.93578189617153 257.34849388719414 L 485.2591539451298 263.1496631100216 L 481.52072628583454 268.5031661332293 L 479.2082365454404 273.4169692570262 L 478.65229455337226 277.965341108006 L 479.99029720529415 282.2725030375775 L 483.150700702108 286.48999267977075 L 487.8594560692019 290.77105672391446 L 493.66801843277403 295.2457170009094 L 500.0000000000001 299.99999999999994" fill-opacity="1"/></g></svg>