<svg version="1.1" xmlns="http://www.w3.org/2000/svg" xmlns:xlink="http://www.w3.org/1999/xlink" width="600" height="600" viewBox="0 0 600 600"><defs/><g><path fill="rgb(100,230,80)" stroke="none" paint-order="stroke fill markers" d=" M 500 300 L 503.20831517606257 304.9884841386486 L 506.272590404272 310.13352256034955 L 509.1695391515119 315.42927214732396 L 511.8763620984665 320.86800024128866 L 514.3709495137256 326.44013479198077 L 516.6320777768243 332.13433318950933 L 518.6395982012519 337.93756912584433 L 520.3746163817935 343.8352366548865 L 521.8196603808839 349.8112704527028 L 522.9588361750987 355.84828112129173 L 523.7779689044563 361.92770423218576 L 524.2647286026837 368.0299616717248 L 524.4087392347105 374.134633729249 L 524.2016700269792 380.2206402639242 L 523.6373082451526 386.26642919645093 L 522.7116127508473 392.2501704993857 L 521.4227478524207 398.14995380492195 L 519.7710971528213 403.9439877122736 L 517.7592572882776 409.6107988586301 L 515.3920116433117 415.12942881819265 L 512.6762843183784 420.47962691305054 L 509.62107481451886 425.64203705743546 L 506.2373740829677 430.59837681284006 L 502.53806276490536 435.33160690506793 L 498.53779261579825 439.8260895447903 L 494.2528522683915 444.0677339997535 L 489.7010186368888 448.0441279883836 L 484.9013954007323 451.744653600005 L 479.8742401283912 455.1605865949236 L 474.6407817085102 458.28517809679903 L 469.2230298466208 461.1137178585159 L 463.64357845953174 463.64357845953174 L 457.92540485576035 465.8742399757329 L 452.0916666284274 467.8072948504067 L 446.16549820654024 469.44643288522684 L 440.16980901135446 470.7974064613287 L 434.1270851465375 471.86797629076773 L 428.05919651432237 472.6678381860863 L 421.9872111951107 473.20853151855044 L 415.93121885558133 473.503330212097 L 409.91016486099073 473.5671172884606 L 403.9416966618845 473.4162441376901 L 398.0420239048883 473.068375835804 L 392.2257935827831 472.5423239662374 L 386.5059813919977 471.8578685227037 L 380.8938003073788 471.03557057696605 L 375.39862721617044 470.09657748476263 L 370.02794827716343 469.0624224758896 L 364.7873234886604 467.954820529514 L 359.6803707620088 466.7954624726294 L 354.7087696077833 465.6058092578272 L 349.87228435107727 464.4068883760499 L 345.1688066026434 463.21909434072643 L 340.5944165256184 462.0619951418431 L 336.1434622550972 460.9541465124371 L 331.8086566516377 459.91291577624975 L 327.58119040158414 458.9543169545492 L 323.4508603185137 458.09285870329506 L 319.4062115526714 457.3414065298998 L 315.4346922803797 456.71106060300565 L 311.5228193243979 456.2110503202494 L 307.6563530502266 455.8486466393583 L 303.8204797934237 455.62909300863265 L 300 455.55555555555554 L 296.1795202065763 455.62909300863265 L 292.3436469497735 455.8486466393583 L 288.4771806756021 456.2110503202494 L 284.56530771962036 456.71106060300565 L 280.5937884473286 457.3414065298998 L 276.54913968148634 458.092858703295 L 272.41880959841586 458.9543169545492 L 268.1913433483623 459.91291577624975 L 263.8565377449028 460.9541465124371 L 259.4055834743816 462.0619951418431 L 254.83119339735663 463.21909434072643 L 250.1277156489228 464.4068883760499 L 245.29123039221673 465.60580925782716 L 240.31962923799125 466.79546247262937 L 235.21267651133968 467.954820529514 L 229.97205172283657 469.0624224758896 L 224.60137278382956 470.09657748476263 L 219.1061996926213 471.03557057696605 L 213.4940186080023 471.8578685227037 L 207.77420641721693 472.5423239662374 L 201.9579760951117 473.068375835804 L 196.05830333811548 473.41624413769006 L 190.08983513900935 473.5671172884606 L 184.06878114441878 473.503330212097 L 178.01278880488925 473.20853151855044 L 171.9408034856776 472.66783818608644 L 165.87291485346253 471.86797629076773 L 159.83019098864557 470.7974064613287 L 153.83450179345988 469.44643288522684 L 147.90833337157255 467.8072948504067 L 142.07459514423968 465.8742399757329 L 136.3564215404683 463.64357845953174 L 130.77697015337927 461.113717858516 L 125.3592182914899 458.2851780967991 L 120.12575987160875 455.16058659492353 L 115.0986045992677 451.744653600005 L 110.29898136311115 448.0441279883836 L 105.74714773160858 444.0677339997535 L 101.4622073842018 439.82608954479036 L 97.46193723509461 435.33160690506793 L 93.76262591703232 430.59837681284006 L 90.37892518548117 425.64203705743546 L 87.3237156816216 420.4796269130506 L 84.60798835668831 415.1294288181927 L 82.24074271172242 409.6107988586302 L 80.22890284717874 403.9439877122736 L 78.57725214757926 398.14995380492195 L 77.28838724915269 392.2501704993857 L 76.36269175484745 386.266429196451 L 75.79832997302083 380.2206402639243 L 75.59126076528952 374.134633729249 L 75.73527139731624 368.02996167172483 L 76.22203109554366 361.9277042321858 L 77.04116382490139 355.8482811212918 L 78.1803396191161 349.81127045270284 L 79.62538361820634 343.8352366548866 L 81.36040179874809 337.93756912584433 L 83.36792222317567 332.13433318950933 L 85.62905048627442 326.4401347919808 L 88.12363790153353 320.8680002412887 L 90.83046084848809 315.429272147324 L 93.727409595728 310.1335225603495 L 96.79168482393737 304.9884841386486 L 99.99999999999997 300 L 103.3287876975809 295.1719927294837 L 106.754407922203 290.5064528293824 L 110.25335648003582 286.003446707457 L 113.80247142958768 281.66114410946443 L 117.37913567424155 277.4758647122943 L 120.9614737909119 273.44214340736465 L 124.52854124567537 269.5528136217239 L 128.06050422050146 265.7991078484352 L 131.53880836547248 262.1707743899549 L 134.94633489728102 258.6562091599862 L 138.26754258628037 255.24260124222644 L 141.48859430980022 251.91609076993993 L 144.5974669974958 248.66193756969247 L 147.58404395377084 245.46469890703617 L 150.440188711257 242.30841458245567 L 153.15979974633257 239.1767975533498 L 155.73884557100843 236.05342820292603 L 158.1753799034439 232.92195034016083 L 160.46953681007145 229.76626699678746 L 162.62350590396971 226.57073408779362 L 164.64148787489387 223.32035002113696 L 166.52963081441004 220.0009393801468 L 168.2959479830848 216.59932885800123 L 169.95021784388726 213.1035136972271 L 171.50386735516472 209.50281297765218 L 172.9698396761335 205.78801220278018 L 174.36244758624633 201.95149175613287 L 175.6972140556375 197.9873399345468 L 176.99070152579736 193.89144941341294 L 178.2603315665265 189.66159615799165 L 179.52419666603402 185.29749996368918 L 180.80086598491272 180.80086598491275 L 182.10918696093353 176.1754067951462 L 183.46808468962 171.4268447084231 L 184.89636102502948 166.56289428263312 L 186.41249534589622 161.59322511623404 L 188.03444891428674 156.52940524012533 L 189.77947471734905 151.38482559382837 L 191.66393462797265 146.17460625791696 L 193.70312564774042 140.91548529107888 L 195.9111169061518 135.62569118857775 L 198.30059898459587 130.32480013758126 L 200.88274701297468 125.03357939231947 L 203.66709885238396 119.77381822689546 L 206.66144953015498 114.5681480444976 L 209.8717629352659 109.43985332758882 L 213.30210161417446 104.41267520335052 L 216.95457533112744 99.51060947137506 L 220.82930887466512 94.75770099561842 L 224.9244294051208 90.1778363994211 L 229.2360734482267 85.7945370206125 L 233.75841344929228 81.63075408316632 L 238.483703612684 77.70866802255048 L 243.40234456431278 74.04949386402555 L 248.5029661923492 70.6732944970257 L 253.7725278451863 67.59880361495763 L 259.1964348974635 64.84325999897277 L 264.75867053636887 62.422254717382685 L 270.441941472985 60.34959269041576 L 276.2278361485554 58.637169934126916 L 282.09699388453095 57.294867648773305 L 288.0292833192593 56.330464157289356 L 294.0039883842588 55.74956553015096 L 299.99999999999994 55.55555555555554 L 305.9960116157411 55.74956553015096 L 311.97071668074057 56.330464157289356 L 317.90300611546894 57.294867648773305 L 323.7721638514445 58.63716993412689 L 329.55805852701496 60.34959269041573 L 335.2413294636311 62.42225471738266 L 340.80356510253637 64.84325999897271 L 346.2274721548136 67.59880361495757 L 351.4970338076507 70.67329449702567 L 356.5976554356871 74.04949386402552 L 361.51629638731595 77.70866802255046 L 366.24158655070767 81.63075408316627 L 370.76392655177324 85.79453702061244 L 375.07557059487914 90.17783639942101 L 379.1706911253348 94.75770099561834 L 383.0454246688725 99.51060947137498 L 386.6978983858255 104.41267520335043 L 390.1282370647341 109.43985332758874 L 393.338550469845 114.56814804449755 L 396.332901147616 119.77381822689537 L 399.11725298702527 125.03357939231941 L 401.6994010154041 130.32480013758118 L 404.08888309384815 135.62569118857766 L 406.2968743522595 140.91548529107882 L 408.33606537202735 146.1746062579169 L 410.22052528265095 151.38482559382823 L 411.9655510857133 156.52940524012524 L 413.5875046541037 161.59322511623398 L 415.1036389749705 166.56289428263298 L 416.53191531037993 171.42684470842303 L 417.8908130390664 176.1754067951461 L 419.1991340150872 180.8008659849127 L 420.4758033339659 185.29749996368912 L 421.73966843347347 189.6615961579916 L 423.0092984742026 193.8914494134128 L 424.3027859443624 197.9873399345467 L 425.63755241375367 201.9514917561327 L 427.03016032386654 205.78801220278018 L 428.49613264483526 209.50281297765224 L 430.04978215611277 213.10351369722707 L 431.70405201691517 216.59932885800117 L 433.47036918558996 220.00093938014675 L 435.35851212510613 223.3203500211369 L 437.3764940960303 226.57073408779357 L 439.53046318992847 229.7662669967874 L 441.82462009655603 232.92195034016072 L 444.2611544289915 236.05342820292594 L 446.84020025366726 239.1767975533497 L 449.55981128874305 242.3084145824557 L 452.41595604622916 245.4646989070362 L 455.40253300250413 248.66193756969244 L 458.51140569019975 251.91609076993987 L 461.73245741371954 255.24260124222639 L 465.053665102719 258.65620915998613 L 468.4611916345275 262.17077438995483 L 471.93949577949854 265.79910784843514 L 475.4714587543245 269.55281362172377 L 479.03852620908805 273.4421434073645 L 482.62086432575836 277.4758647122943 L 486.1975285704124 281.66114410946443 L 489.7466435199642 286.003446707457 L 493.24559207779686 290.5064528293823 L 496.671212302419 295.17199272948363 L 500 299.99999999999994" fill-opacity="1"/></g></svg>