<svg version="1.1" xmlns="http://www.w3.org/2000/svg" xmlns:xlink="http://www.w3.org/1999/xlink" width="600" height="600" viewBox="0 0 600 600"><defs/><g><path fill="rgb(40,60,150)" stroke="none" paint-order="stroke fill markers" d=" M 500 300 L 503.49486278695906 304.9955184876647 L 506.60553770667184 310.1498792124557 L 509.08855405713643 315.42329832787556 L 510.7392729665316 320.7560067369422 L 511.40743219877675 326.0746197935943 L 511.00843537345906 331.3001446400436 L 509.52951363987586 336.35681950119783 L 507.030298171965 341.18088672870203 L 503.63778779641666 345.72839443041346 L 499.53614134677395 349.9812014942561 L 494.95213284642614 353.95052105197135 L 490.137446410782 357.6775637982795 L 485.34922972866696 361.2311147274954 L 480.83045110622413 364.7021699936933 L 476.7916059007782 368.1960477553589 L 473.3951946276803 371.8226412651076 L 470.74415816915626 375.6856799913468 L 468.87512563779035 379.871985950896 L 467.7569353033109 384.44174507965363 L 467.2944614512155 389.42075262856514 L 467.3373553320556 394.7954408910107 L 467.69292112441036 400.5112688637138 L 468.14202926549854 406.4747657583014 L 468.4567447859854 412.5591982794187 L 468.41823456293673 418.6135034378276 L 467.8335224343476 424.4738235961938 L 466.5497827257507 429.9767261528759 L 464.46508910942 434.97301046384666 L 461.5348464927482 439.34091685082643 L 457.77350172011154 442.9975666302606 L 453.25152279328677 445.90757905164986 L 448.0880229039762 448.0880229039762 L 442.43975278701396 449.6091509624863 L 436.48746451159536 450.5907109075021 L 430.4208397373702 451.19399816340774 L 424.4232615027845 451.61018280629764 L 418.6576856275922 452.0457726929649 L 413.25473996466224 452.7063393048735 L 408.30396002487765 453.77980765171156 L 403.84877851357624 455.4206803691901 L 399.8855503686299 457.7365210777481 L 396.3665436694519 460.77786490294193 L 393.2064907606642 464.53246608772577 L 390.29200171161193 468.9244538394882 L 387.49291811731115 473.81857504553426 L 384.67454719652534 479.02928825292105 L 381.70967430587757 484.33407158696457 L 378.4893079317743 489.4899517101677 L 374.93125791725754 494.2519816819793 L 370.9858702454312 498.3922168282829 L 366.6385188120198 501.7176755157267 L 361.90876048010057 504.0858325658719 L 356.84636638671196 505.4163732910589 L 351.52472239496956 505.6982221973486 L 346.03231999573825 504.99122979997765 L 340.4632160787239 503.42232417099035 L 334.90741272283645 501.17637655299734 L 329.4420911995321 498.4824565375333 L 324.1245306299154 495.5965269615968 L 318.9873619311872 492.78192089854144 L 314.03656939649534 490.289128605614 L 309.2523782241929 488.33648539669514 L 304.5928823889078 487.09328647972916 L 300 486.66666666666663 L 295.40711761109225 487.09328647972916 L 290.7476217758071 488.33648539669514 L 285.96343060350466 490.289128605614 L 281.0126380688128 492.78192089854144 L 275.8754693700846 495.5965269615968 L 270.5579088004679 498.48245653753327 L 265.0925872771636 501.17637655299734 L 259.5367839212761 503.42232417099035 L 253.96768000426175 504.99122979997765 L 248.47527760503044 505.6982221973486 L 243.15363361328806 505.4163732910589 L 238.09123951989943 504.0858325658719 L 233.3614811879802 501.7176755157267 L 229.01412975456878 498.3922168282829 L 225.06874208274246 494.2519816819794 L 221.5106920682257 489.4899517101677 L 218.29032569412246 484.33407158696457 L 215.32545280347472 479.0292882529211 L 212.50708188268885 473.81857504553426 L 209.70799828838807 468.92445383948825 L 206.79350923933578 464.53246608772577 L 203.6334563305481 460.77786490294193 L 200.11444963137012 457.7365210777481 L 196.15122148642388 455.42068036919017 L 191.6960399751224 453.7798076517115 L 186.7452600353378 452.7063393048735 L 181.34231437240783 452.0457726929649 L 175.5767384972155 451.61018280629764 L 169.5791602626299 451.19399816340774 L 163.5125354884046 450.5907109075021 L 157.56024721298607 449.60915096248635 L 151.91197709602383 448.0880229039762 L 146.7484772067133 445.9075790516499 L 142.22649827988852 442.9975666302606 L 138.46515350725176 439.34091685082643 L 135.53491089058 434.97301046384666 L 133.45021727424933 429.9767261528759 L 132.16647756565243 424.4738235961938 L 131.5817654370633 418.61350343782766 L 131.54325521401458 412.5591982794187 L 131.85797073450146 406.4747657583014 L 132.30707887558964 400.5112688637138 L 132.66264466794442 394.79544089101074 L 132.70553854878446 389.4207526285652 L 132.24306469668906 384.4417450796537 L 131.12487436220968 379.871985950896 L 129.25584183084374 375.6856799913468 L 126.60480537231965 371.8226412651077 L 123.20839409922178 368.1960477553589 L 119.16954889377595 364.70216999369336 L 114.65077027133304 361.23111472749537 L 109.86255358921798 357.6775637982795 L 105.04786715357392 353.95052105197135 L 100.46385865322605 349.9812014942561 L 96.3622122035834 345.72839443041346 L 92.96970182803503 341.1808867287021 L 90.47048636012417 336.35681950119783 L 88.99156462654096 331.30014464004364 L 88.5925678012232 326.07461979359437 L 89.26072703346838 320.75600673694225 L 90.91144594286354 315.42329832787567 L 93.39446229332822 310.14987921245563 L 96.505137213041 304.9955184876647 L 99.99999999999994 300 L 103.61533530847726 295.1790270784998 L 107.08735522460279 290.52280948148854 L 110.17237138566034 285.9974728880086 L 112.66538229765285 281.549150605118 L 114.41561835929278 277.11034971390785 L 115.33783138754663 272.60795485789896 L 115.41845668429931 267.9720639970774 L 114.7161860106728 263.14475792225073 L 113.35693578100523 258.0878983676655 L 111.52364006895633 252.7891295329505 L 109.44170652825022 247.26541806201206 L 107.36131211789854 241.56369289649464 L 105.53795749145229 235.75841856793886 L 104.21282503301578 229.94622863680524 L 103.59448636688265 224.23803314136364 L 103.84338162316564 218.74926831907175 L 105.060255887744 213.58915438935082 L 107.27940838841295 208.8499485787832 L 110.4672148251048 204.59721321781097 L 114.52595571187354 200.86205789816609 L 119.30255888857104 197.6361639990971 L 124.60147712430145 194.87017118642507 L 130.20060316561558 192.4757178034625 L 135.86889986496723 190.33110507157784 L 141.38430930230322 188.29022687068948 L 146.55050984208964 186.19410179922048 L 151.2112116751082 183.88408992062523 L 155.26090776432517 181.21569679838848 L 158.65130789015436 178.0717796693158 L 161.39305157812788 174.37398469145324 L 163.5526896127 170.09136115682313 L 165.24531042935712 165.24531042935718 L 166.6235348921872 159.91031778189966 L 167.863882572788 154.2102607655186 L 169.15170255585946 148.31045956081408 L 170.66594783732629 142.40600146120303 L 172.56504939534142 136.70720164232247 L 174.97501816768892 131.42332671261548 L 177.9806834577395 126.74588239107803 L 181.62068530573532 122.83283544817203 L 185.886502413791 119.79509497786523 L 190.7254459921632 117.68642090283308 L 196.04721386875062 116.49766964424123 L 201.73330698121276 116.15594810014616 L 207.64838625546838 116.5288545673281 L 213.6525098244124 117.4335710035437 L 219.61314870388148 118.65016930555223 L 225.41593498573826 119.93813870565293 L 230.97324330326234 121.05486214808377 L 236.22992888854324 121.7745907550746 L 241.16582265246322 121.90640327851204 L 245.79488957831563 121.30969827298836 L 250.1612633967526 119.90594697288299 L 254.33265043366396 117.68572091953101 L 258.3918239329903 114.71037778456628 L 262.42708727227256 111.10821200969826 L 266.52265721871584 107.06531959742094 L 270.7499014173873 102.81185255162103 L 275.16026055022894 98.6047131221128 L 279.78050579936297 94.70803022966265 L 284.6107439566284 91.37294593413793 L 289.6253084932257 88.81830291462617 L 294.77639097974287 87.21375900124747 L 299.99999999999994 86.66666666666666 L 305.2236090202571 87.21375900124747 L 310.37469150677424 88.81830291462612 L 315.3892560433715 91.37294593413787 L 320.219494200637 94.70803022966257 L 324.83973944977095 98.60471312211268 L 329.2500985826126 102.81185255162094 L 333.4773427812841 107.0653195974208 L 337.5729127277274 111.10821200969818 L 341.60817606700965 114.71037778456622 L 345.667349566336 117.68572091953101 L 349.83873660324736 119.90594697288293 L 354.2051104216843 121.30969827298833 L 358.8341773475367 121.90640327851207 L 363.7700711114567 121.77459075507463 L 369.0267566967376 121.05486214808383 L 374.5840650142617 119.9381387056529 L 380.38685129611844 118.65016930555228 L 386.3474901755875 117.43357100354373 L 392.3516137445315 116.52885456732815 L 398.2666930187871 116.15594810014622 L 403.9527861312493 116.4976696442412 L 409.27455400783674 117.68642090283305 L 414.11349758620895 119.7950949778652 L 418.3793146942646 122.832835448172 L 422.01931654226047 126.74588239107797 L 425.0249818323111 131.4233267126154 L 427.4349506046585 136.70720164232242 L 429.3340521626737 142.40600146120292 L 430.84829744414054 148.3104595608139 L 432.13611742721196 154.21026076551848 L 433.3764651078128 159.91031778189955 L 434.75468957064277 165.24531042935712 L 436.4473103873 170.09136115682304 L 438.60694842187206 174.37398469145322 L 441.3486921098455 178.07177966931567 L 444.73909223567466 181.21569679838842 L 448.7887883248917 183.88408992062512 L 453.4494901579104 186.19410179922045 L 458.6156906976968 188.29022687068954 L 464.1311001350326 190.33110507157784 L 469.7993968343843 192.4757178034625 L 475.39852287569846 194.87017118642507 L 480.69744111142893 197.63616399909705 L 485.47404428812644 200.86205789816603 L 489.53278517489514 204.59721321781092 L 492.720591611587 208.84994857878308 L 494.939744112256 213.58915438935068 L 496.15661837683433 218.74926831907158 L 496.40551363311727 224.2380331413637 L 495.78717496698414 229.9462286368053 L 494.4620425085477 235.7584185679388 L 492.6386878821014 241.56369289649456 L 490.5582934717497 247.26541806201197 L 488.47635993104376 252.78912953295043 L 486.6430642189948 258.08789836766545 L 485.28381398932726 263.1447579222506 L 484.5815433157007 267.9720639970772 L 484.66216861245334 272.6079548578988 L 485.5843816407072 277.11034971390785 L 487.33461770234715 281.549150605118 L 489.8276286143397 285.9974728880086 L 492.9126447753972 290.5228094814884 L 496.38466469152274 295.17902707849976 L 499.9999999999999 299.99999999999994" fill-opacity="1"/></g></svg>