<svg version="1.1" xmlns="http://www.w3.org/2000/svg" xmlns:xlink="http://www.w3.org/1999/xlink" width="600" height="600" viewBox="0 0 600 600"><defs/><g><path fill="rgb(15,20,60)" stroke="none" paint-order="stroke fill markers" d=" M 500 300 L 502.67433011101275 304.97537554107487 L 505.1428361179909 310.078021291251 L 507.32309394733716 315.2930701665007 L 509.1383614480886 320.59833071484013 L 510.52013545693853 325.9651821785261 L 511.4104218799484 331.3597737054608 L 511.7636396010163 336.744477129477 L 511.5480923407364 342.0795318621464 L 510.74695827648793 347.3248120467291 L 509.3587647123767 352.44164056220995 L 507.3973337071497 357.3945719645171 L 504.89120363916 362.1530671242558 L 501.88255050422833 366.6929861510609 L 498.4256506103117 370.99783304392633 L 494.584942594922 375.059695114284 L 490.4327607517497 378.87983222352557 L 486.04682300051655 382.4688847923786 L 481.5075650603759 385.8466848313599 L 476.895417202084 389.0416703078775 L 472.28812119630766 392.08991937146607 L 467.7581827179413 395.0338366604723 L 463.37054861732764 397.9205384841875 L 459.18058936748946 400.7999965279921 L 455.23245500158833 403.72301034383014 L 451.5578584335451 406.73908682743786 L 448.1753237627295 409.89430981266406 L 445.08991962406117 413.22928461319236 L 442.2934795246347 416.77724071907994 L 439.76529309215255 420.56237094489273 L 437.4732349262134 424.5984772912777 L 435.3752819344461 428.88798290854464 L 433.4213562373095 433.4213562373095 L 431.5554194438242 438.1769781427104 L 429.71773574246674 443.12146622893727 L 427.84721610992466 448.2104531503188 L 425.8837541838011 453.3897982872118 L 423.77046601170605 458.5971952999406 L 421.45575088526783 463.76412246411013 L 418.89509857324913 468.8180689341899 L 416.05257914499975 473.6849587205993 L 412.90196478141917 478.2916856516268 L 409.42744797609816 482.56866727235274 L 405.6239367389965 486.45232373554046 L 401.496924190821 489.88738936238923 L 397.0619466222159 492.8289696589876 L 392.34366003958513 495.2442649995658 L 387.3745798130665 497.1138936357771 L 382.19354072251036 498.4327607517497 L 376.84394498271377 499.2104364461131 L 371.3718733343101 499.47102319130244 L 365.82413873708566 499.2525118441655 L 360.2463634446259 498.60564397206315 L 354.6811582462007 497.59231641786414 L 349.1664775339401 496.28358097519305 L 343.73421581370445 494.7573071446086 L 338.40910066331594 493.09558862172537 L 333.2079243888366 491.38198394811343 L 328.139142257884 489.6986882607263 L 323.202849780199 488.1237360527455 L 318.3911356805766 486.72833418652664 L 313.68879160321893 485.5744200923301 L 309.0743448245986 484.71253229508653 L 304.5213669240963 484.18006941629676 L 300 484 L 295.4786330759037 484.18006941629676 L 290.9256551754014 484.71253229508653 L 286.31120839678107 485.5744200923301 L 281.60886431942345 486.72833418652664 L 276.797150219801 488.12373605274547 L 271.8608577421161 489.6986882607263 L 266.7920756111634 491.38198394811343 L 261.59089933668406 493.09558862172537 L 256.26578418629555 494.7573071446086 L 250.83352246605995 496.283580975193 L 245.31884175379932 497.59231641786414 L 239.7536365553741 498.60564397206315 L 234.17586126291437 499.2525118441655 L 228.6281266656899 499.4710231913024 L 223.15605501728623 499.2104364461131 L 217.8064592774897 498.4327607517497 L 212.62542018693358 497.1138936357771 L 207.65633996041493 495.24426499956587 L 202.9380533777841 492.8289696589876 L 198.50307580917905 489.8873893623893 L 194.3760632610035 486.4523237355405 L 190.5725520239019 482.56866727235274 L 187.09803521858083 478.29168565162684 L 183.9474208550003 473.6849587205994 L 181.10490142675087 468.8180689341899 L 178.54424911473222 463.7641224641102 L 176.22953398829395 458.5971952999406 L 174.1162458161989 453.3897982872119 L 172.1527838900754 448.21045315031887 L 170.28226425753326 443.1214662289372 L 168.44458055617582 438.1769781427104 L 166.57864376269052 433.4213562373095 L 164.6247180655539 428.8879829085447 L 162.5267650737866 424.59847729127773 L 160.23470690784742 420.56237094489273 L 157.70652047536532 416.77724071907994 L 154.9100803759388 413.2292846131924 L 151.8246762372705 409.89430981266406 L 148.4421415664549 406.73908682743786 L 144.7675449984116 403.72301034383014 L 140.81941063251054 400.7999965279921 L 136.62945138267236 397.9205384841875 L 132.24181728205875 395.0338366604723 L 127.7118788036924 392.08991937146607 L 123.10458279791607 389.04167030787755 L 118.49243493962405 385.8466848313599 L 113.95317699948342 382.4688847923787 L 109.5672392482503 378.87983222352557 L 105.41505740507807 375.05969511428407 L 101.57434938968834 370.9978330439264 L 98.11744949577167 366.6929861510609 L 95.10879636084002 362.1530671242558 L 92.6026662928503 357.3945719645172 L 90.64123528762335 352.44164056221 L 89.2530417235121 347.32481204672916 L 88.45190765926361 342.07953186214644 L 88.23636039898372 336.744477129477 L 88.58957812005161 331.3597737054608 L 89.47986454306147 325.9651821785261 L 90.86163855191143 320.59833071484013 L 92.67690605266284 315.29307016650074 L 94.85716388200913 310.078021291251 L 97.32566988898719 304.97537554107487 L 100 300 L 102.79480263253106 295.15888413191 L 105.62465363592187 290.45095156028384 L 108.40691127586103 285.86724472663366 L 111.06447077920984 281.39147458301585 L 113.52832161745451 277.00091209883965 L 115.73981789403595 272.6675839233161 L 117.65258264543974 268.35972162535654 L 119.23398017944422 264.043403055695 L 120.46610626107648 259.68431598398115 L 121.34626343455909 255.24956860090444 L 121.88690738897375 250.7094689745578 L 122.11506934627644 246.03919622247093 L 122.07127826701367 241.2202899915044 L 121.80802453710339 236.24189168703828 L 121.38782306102638 231.10168050028875 L 120.88094774723501 225.8064592774897 L 120.36292071910435 220.37235919038278 L 119.91184781099861 214.8246474592471 L 119.60569672387786 209.19713844603484 L 119.51961545696562 203.531224641067 L 119.72338627445671 197.87455976855867 L 120.27910461721879 192.27944080689883 L 121.23916326760661 186.80094857315328 L 122.6446100805702 181.49491713598934 L 124.52393317291163 176.41581026029974 L 126.89231117047157 171.61458801569074 L 129.75134857341868 167.1366483809417 L 133.08929817953984 163.01992705362176 L 136.88175448955866 159.29323376338206 L 141.0927847842298 155.97489535247033 L 145.67644875385932 153.0717650137179 L 150.57864376269043 150.5786437626905 L 155.73920154899736 148.47814496212368 L 161.09415380365928 146.7410160869536 L 166.57807892841382 145.326914547725 L 172.1264405183428 144.18561694211704 L 177.6778297794552 143.2586242492981 L 183.1760290882945 142.48110987185217 L 188.571822006111 141.78414367355637 L 193.82448593715884 141.09711379958125 L 198.90291682658028 140.35025955174396 L 203.78635029880945 139.4772232722439 L 208.46465984708286 138.41752729205592 L 212.93822946042184 137.11888362304722 L 217.21741476037317 135.53924918078147 L 221.3216226674722 133.6485477501885 L 225.27805421107044 131.42999135436492 L 229.12016777647432 128.8809477472351 L 232.88593036871856 126.01331691221753 L 236.61593197742212 122.85339711809411 L 240.35144257752904 119.4412396069508 L 244.13249254284096 115.82950967917964 L 247.9960552562413 112.0818900996882 L 251.97440557263445 108.27107969737546 L 256.0937197509565 104.47645512919726 L 260.3729718568646 100.78147646043325 L 264.823168884716 97.27092699253706 L 269.4469524757391 94.028084274814 L 274.2385797005126 91.13192221326145 L 279.18427954875233 88.65444351764788 L 284.26296616335196 86.65823742085402 L 289.4472750936314 85.19434981301757 L 294.7048755149314 84.30054193781507 L 299.99999999999994 84 L 305.2951244850685 84.30054193781504 L 310.55272490636855 85.19434981301754 L 315.7370338366479 86.65823742085405 L 320.81572045124756 88.65444351764782 L 325.7614202994873 91.13192221326148 L 330.55304752426076 94.02808427481395 L 335.1768311152839 97.27092699253694 L 339.62702814313536 100.78147646043323 L 343.90628024904345 104.4764551291972 L 348.0255944273655 108.2710796973754 L 352.0039447437586 112.08189009968817 L 355.867507457159 115.82950967917958 L 359.6485574224709 119.44123960695069 L 363.3840680225778 122.85339711809408 L 367.1140696312814 126.01331691221745 L 370.87983222352557 128.8809477472351 L 374.7219457889295 131.4299913543649 L 378.6783773325277 133.64854775018847 L 382.78258523962677 135.53924918078147 L 387.0617705395781 137.11888362304722 L 391.53534015291706 138.41752729205592 L 396.2136497011905 139.47722327224386 L 401.0970831734196 140.35025955174396 L 406.17551406284105 141.09711379958128 L 411.4281779938889 141.7841436735564 L 416.8239709117054 142.4811098718522 L 422.32217022054476 143.25862424929804 L 427.87355948165714 144.18561694211704 L 433.4219210715861 145.326914547725 L 438.90584619634063 146.74101608695355 L 444.2607984510026 148.47814496212365 L 449.4213562373094 150.5786437626905 L 454.3235512461406 153.07176501371782 L 458.9072152157702 155.9748953524703 L 463.11824551044117 159.29323376338198 L 466.9107018204601 163.01992705362161 L 470.2486514265812 167.13664838094155 L 473.10768882952846 171.61458801569074 L 475.47606682708835 176.41581026029976 L 477.3553899194298 181.49491713598925 L 478.7608367323934 186.80094857315322 L 479.72089538278124 192.27944080689875 L 480.27661372554337 197.87455976855856 L 480.48038454303435 203.53122464106696 L 480.3943032761221 209.19713844603478 L 480.08815218900145 214.8246474592469 L 479.6370792808957 220.37235919038258 L 479.119052252765 225.80645927748952 L 478.61217693897356 231.1016805002888 L 478.1919754628966 236.2418916870383 L 477.92872173298633 241.2202899915043 L 477.88493065372353 246.03919622247088 L 478.1130926110262 250.70946897455775 L 478.6537365654409 255.24956860090435 L 479.5338937389235 259.6843159839811 L 480.7660198205558 264.04340305569497 L 482.3474173545602 268.3597216253564 L 484.26018210596396 272.667583923316 L 486.4716783825455 277.00091209883965 L 488.9355292207902 281.39147458301585 L 491.59308872413897 285.8672447266337 L 494.37534636407804 290.4509515602838 L 497.20519736746894 295.15888413190993 L 500 299.99999999999994" fill-opacity="1"/></g></svg>