<svg version="1.1" xmlns="http://www.w3.org/2000/svg" xmlns:xlink="http://www.w3.org/1999/xlink" width="600" height="600" viewBox="0 0 600 600"><defs/><g><path fill="rgb(45,130,240)" stroke="none" paint-order="stroke fill markers" d=" M 500 300 L 503.2030652697065 304.9883552606813 L 506.23075789797565 310.1314674610972 L 509.0292882782013 315.4189266213837 L 511.54699420623524 320.835560335362 L 513.7353161420489 326.3617368930885 L 515.5497111447207 331.9737792662577 L 516.9504870666404 337.6444805409871 L 517.9035402632838 343.3437090541784 L 518.3809820951361 349.03908942151236 L 518.3616418252387 354.6967438831867 L 517.8314360998016 360.2820769770252 L 516.783597985302 365.7605855093087 L 515.2187614641438 371.0986751550674 L 513.1449002999586 376.26446479633904 L 510.57712320898565 381.2285599046242 L 507.5373302514113 385.96477688883857 L 504.0537382229012 390.45080134967907 L 500.1602855210784 394.66876458381944 L 495.89592942742877 398.6057244366354 L 491.30385093003656 402.25403867237475 L 486.4305840707526 405.61162137101246 L 481.32508829302753 408.6820754206789 L 476.03778336273444 411.4746968978314 L 470.61956711146183 414.00434995491696 L 465.12083649658905 416.29121370540287 L 459.5905322808751 418.3604054459559 L 454.0752270116018 420.2414873227742 L 448.61827494004797 421.96786617284 L 443.25904108971054 423.5760986933963 L 438.03222488811076 425.10511626075345 L 432.96729166182377 426.5953855845222 L 428.08802290397614 428.08802290397614 L 423.4121936101555 429.62388057525925 L 418.95138219942584 431.2426256355559 L 414.7109156523833 432.981830245797 L 410.689949570494 434.87609379880223 L 406.8816799537126 436.9562159360496 L 403.27368066937674 439.24843875392526 L 399.84835790547754 441.77377511880997 L 396.5835104232319 444.54743827787127 L 393.45298220053945 447.5783858851655 L 390.42739213688293 450.86898920416377 L 387.4749239123443 454.4148356479933 L 384.5621578919308 458.2046700327601 L 381.6549261663881 462.2204770066033 L 378.71917143836 466.43770413982884 L 375.7217905052678 470.82562218323676 L 372.63144355550526 475.34781608643675 L 369.4193113711103 479.9627975781095 L 366.0597837977123 484.62472750580594 L 362.5310644724558 489.2842337701039 L 358.81567875611836 493.8893086177613 L 354.9008740530706 498.3862673257357 L 350.77890417224813 502.7207489502309 L 346.4471920291314 506.8387388619312 L 341.9083677542222 510.68759226133454 L 337.1701820965486 514.2170377785344 L 332.2452978289808 517.3801406125054 L 327.15096461345684 520.1342054491195 L 321.90858540797234 522.4416005986238 L 316.54318493561107 524.2704863871468 L 311.0827929353281 525.595432789507 L 305.5577568262598 526.3979135610672 L 300 526.6666666666666 L 294.4422431737402 526.3979135610673 L 288.91720706467197 525.595432789507 L 283.45681506438893 524.2704863871468 L 278.0914145920277 522.4416005986238 L 272.84903538654316 520.1342054491195 L 267.7547021710192 517.3801406125054 L 262.8298179034514 514.2170377785344 L 258.0916322457778 510.6875922613346 L 253.55280797086863 506.83873886193123 L 249.22109582775187 502.720748950231 L 245.09912594692943 498.38626732573573 L 241.18432124388164 493.88930861776123 L 237.46893552754423 489.2842337701039 L 233.94021620228767 484.62472750580594 L 230.58068862888973 479.9627975781095 L 227.36855644449474 475.34781608643675 L 224.2782094947322 470.82562218323676 L 221.28082856164005 466.43770413982895 L 218.34507383361188 462.22047700660323 L 215.43784210806922 458.2046700327601 L 212.5250760876557 454.4148356479934 L 209.5726078631171 450.86898920416377 L 206.5470177994606 447.5783858851656 L 203.4164895767681 444.54743827787127 L 200.15164209452251 441.7737751188099 L 196.7263193306233 439.24843875392526 L 193.1183200462874 436.9562159360496 L 189.31005042950608 434.87609379880223 L 185.28908434761678 432.981830245797 L 181.0486178005741 431.2426256355559 L 176.5878063898445 429.62388057525925 L 171.91197709602386 428.08802290397614 L 167.03270833817626 426.59538558452226 L 161.9677751118893 425.10511626075345 L 156.7409589102895 423.5760986933963 L 151.381725059952 421.96786617284 L 145.92477298839825 420.2414873227742 L 140.40946771912493 418.3604054459559 L 134.879163503411 416.29121370540287 L 129.38043288853814 414.00434995491696 L 123.96221663726558 411.47469689783145 L 118.67491170697247 408.682075420679 L 113.56941592924744 405.61162137101246 L 108.6961490699635 402.2540386723748 L 104.10407057257126 398.60572443663546 L 99.83971447892162 394.66876458381944 L 95.94626177709878 390.4508013496791 L 92.4626697485887 385.9647768888386 L 89.42287679101435 381.22855990462426 L 86.8550997000414 376.2644647963391 L 84.78123853585626 371.0986751550674 L 83.21640201469802 365.7605855093087 L 82.16856390019834 360.2820769770252 L 81.6383581747613 354.6967438831867 L 81.61901790486388 349.0390894215125 L 82.09645973671613 343.3437090541785 L 83.04951293335952 337.6444805409871 L 84.45028885527927 331.9737792662577 L 86.2646838579511 326.36173689308856 L 88.45300579376473 320.83556033536206 L 90.97071172179864 315.4189266213838 L 93.76924210202432 310.1314674610972 L 96.79693473029354 304.9883552606813 L 99.99999999999997 300 L 103.32353779122474 295.17186385151643 L 106.71257541590668 290.50439773013005 L 110.11310560672518 285.9931011815167 L 113.47310353735654 281.6287042035378 L 116.74350230256488 277.39746681340205 L 119.8791071588083 273.281589484113 L 122.8394301110639 269.25972503686666 L 125.5894281019917 265.3075802477271 L 128.1001300797247 261.39859335876446 L 130.34914054742111 257.50467192188114 L 132.3210097816257 253.5969739870659 L 134.00746369241844 249.64671460752382 L 135.40748922692904 245.62597899551085 L 136.5272742267503 241.50852343945098 L 137.38000367509008 237.27054529062895 L 137.9855172468966 232.8914039428027 L 138.36983594148893 228.35427574768318 L 138.56456827170106 223.64672721170666 L 138.60620894922266 218.7611925747928 L 138.53534519069456 213.6953439419757 L 138.39578762726802 208.45234447909888 L 138.23364429291874 203.0409777433903 L 138.0963572628516 197.47564894299262 L 138.03172219044367 191.77625674707613 L 138.0869112359556 185.96793713826474 L 138.30751968861708 180.08068364898256 L 138.73665596095924 174.14885109052352 L 139.41409359495321 168.21055250738186 L 140.37550248711668 162.30696151188573 L 141.65177474612713 156.48153432194607 L 143.26845848123702 150.77916768969553 L 145.24531042935712 145.24531042935718 L 147.5959757153287 139.92504739467253 L 150.32780026061846 134.86217549357235 L 153.4417784708725 130.09829164320328 L 156.93263590503568 125.6719124537075 L 160.7890437214618 121.6176448854072 L 164.9939588724034 117.96542616166721 L 169.5250813383394 114.73984985817646 L 174.35541721539107 111.95959335685316 L 179.4539342457005 109.6369597852827 L 184.78629445959422 107.77754520405492 L 190.31564702043067 106.38003920450879 L 196.0034631615316 105.43616429341805 L 201.8103943045454 104.93075652839713 L 207.69713406624706 104.84198689045158 L 213.62526490327173 105.14171990182447 L 219.5580706094692 105.79600308192201 L 225.46129675711506 106.76567804421396 L 231.30384244082435 108.00710143259761 L 237.0583683128992 109.47296153288923 L 242.70180785433342 111.11317432487769 L 248.21577106311116 112.8758410075597 L 253.58683221094253 114.70824767241339 L 258.8066959663834 116.55788684651972 L 263.87223894777077 118.37348010004237 L 268.78542659242805 120.10598082295789 L 273.55310804683603 121.709536626593 L 278.18669453377044 123.14239160963552 L 282.70172927614806 124.36770992974508 L 287.1173594957441 125.35430371567065 L 291.4557232043608 126.07725030743802 L 295.7412654170949 126.51838608258552 L 299.99999999999994 126.66666666666666 L 304.25873458290505 126.51838608258555 L 308.54427679563906 126.07725030743805 L 312.8826405042558 125.35430371567068 L 317.2982707238519 124.36770992974508 L 321.8133054662295 123.14239160963555 L 326.4468919531639 121.70953662659304 L 331.2145734075719 120.10598082295783 L 336.1277610522291 118.3734801000424 L 341.1933040336165 116.55788684651975 L 346.4131677890574 114.70824767241342 L 351.7842289368887 112.87584100755981 L 357.29819214566646 111.11317432487772 L 362.9416316871007 109.47296153288926 L 368.69615755917556 108.00710143259764 L 374.5387032428849 106.76567804421393 L 380.44192939053073 105.79600308192201 L 386.37473509672816 105.14171990182447 L 392.30286593375286 104.84198689045152 L 398.1896056954545 104.93075652839715 L 403.9965368384683 105.43616429341805 L 409.68435297956927 106.38003920450879 L 415.2137055404057 107.77754520405492 L 420.5460657542994 109.6369597852827 L 425.6445827846089 111.9595933568531 L 430.4749186616605 114.73984985817643 L 435.0060411275965 117.96542616166718 L 439.21095627853816 121.61764488540715 L 443.06736409496426 125.67191245370742 L 446.5582215291274 130.09829164320323 L 449.6721997393815 134.8621754935723 L 452.40402428467127 139.92504739467248 L 454.7546895706428 145.24531042935712 L 456.731541518763 150.77916768969538 L 458.3482252538729 156.481534321946 L 459.6244975128833 162.3069615118855 L 460.5859064050468 168.21055250738164 L 461.2633440390407 174.14885109052335 L 461.6924803113829 180.08068364898259 L 461.91308876404446 185.96793713826474 L 461.96827780955624 191.7762567470761 L 461.9036427371484 197.47564894299254 L 461.7663557070813 203.04097774339021 L 461.60421237273204 208.4523444790988 L 461.4646548093055 213.69534394197558 L 461.3937910507773 218.76119257479272 L 461.43543172829897 223.6467272117065 L 461.63016405851107 228.35427574768303 L 462.0144827531034 232.89140394280258 L 462.61999632490995 237.27054529062897 L 463.4727257732497 241.508523439451 L 464.5925107730709 245.6259789955108 L 465.99253630758153 249.64671460752373 L 467.6789902183743 253.59697398706584 L 469.65085945257886 257.5046719218811 L 471.89986992027525 261.3985933587644 L 474.41057189800824 265.30758024772706 L 477.1605698889359 269.25972503686654 L 480.12089284119156 273.2815894841129 L 483.2564976974352 277.39746681340205 L 486.5268964626435 281.6287042035378 L 489.88689439327476 285.99310118151675 L 493.2874245840933 290.50439773013 L 496.6764622087752 295.1718638515164 L 500 299.99999999999994" fill-opacity="1"/></g></svg>