<svg version="1.1" xmlns="http://www.w3.org/2000/svg" xmlns:xlink="http://www.w3.org/1999/xlink" width="600" height="600" viewBox="0 0 600 600"><defs/><g><path fill="rgb(50,180,230)" stroke="none" paint-order="stroke fill markers" d=" M 500 300 L 505.78070376483277 305.0516327340316 L 511.146826830249 310.37297844098936 L 515.8198138406262 315.9198258792346 L 519.5512972476273 321.6239153748047 L 522.1360892862162 327.397873434875 L 523.4228254487359 333.1416454515461 L 523.321685682695 338.7499883716801 L 521.8087831807966 344.1205101680935 L 518.926996832824 349.161701131058 L 514.7832215279079 353.8003962606214 L 509.54220923552566 357.9881389630309 L 503.4173618558108 361.7059821071149 L 496.65900356783646 364.9673593318133 L 489.54079643807916 367.8187813880563 L 482.3450608045865 370.3382517016248 L 475.34781608643675 372.63144355550526 L 468.80436538048747 374.82582898486453 L 462.9362083833913 377.06308728263207 L 457.9199843827727 379.49024009125293 L 453.8790253818073 382.25005265583053 L 450.8779461493958 385.47130075995835 L 448.9205221884008 389.2595259515945 L 447.95091858466594 393.6888859307958 L 447.8581433623078 398.79565283710326 L 448.4834192322022 404.57382244425366 L 449.63000773370595 410.9731769743919 L 451.0748887398502 417.90000035394644 L 452.58160336365484 425.2204857511825 L 453.913514532435 432.7667106901624 L 454.8467294974354 440.3448949118742 L 455.18196233933895 447.7455102874129 L 454.7546895706429 454.7546895706429 L 453.4430632835557 461.16628939438 L 451.17318692558297 466.7939086621556 L 447.9215200357495 471.4821501966244 L 443.7143503554778 475.1164425857353 L 438.62444432538894 477.6308095013562 L 432.765149869698 479.0130817499595 L 426.28236902954063 479.3071870567288 L 419.34493417238593 478.61231622732623 L 412.1340036562301 477.07894250946833 L 404.832136560625 474.9018533573685 L 397.61270936834484 472.31052969388463 L 390.63030070897713 469.55736674739876 L 384.01259628844707 466.9043630840369 L 377.8542599744949 464.6090024944787 L 372.21308562787607 462.91011081275343 L 367.10859605719736 462.0144827531034 L 362.5230997575396 462.0850412282344 L 358.4050625501833 463.2312147933576 L 354.6745093151514 465.5021018718378 L 351.2300493286202 468.88283965857806 L 347.95702457668284 473.29441947718067 L 344.7362193360176 478.59699882920444 L 341.45254471240617 484.5965643209249 L 338.0031248367095 491.05461031577823 L 334.30426081288095 497.7003264452651 L 330.2968308132178 504.2446429622182 L 325.94979441158296 510.39537473856626 L 321.2615991474588 515.872638857188 L 316.25942901096573 520.4237011711714 L 310.9963789249624 523.836435199163 L 305.5467771430776 525.9506508538778 L 300 526.6666666666666 L 294.4532228569224 525.9506508538778 L 289.00362107503764 523.836435199163 L 283.7405709890343 520.4237011711714 L 278.73840085254125 515.872638857188 L 274.0502055884171 510.39537473856626 L 269.7031691867822 504.2446429622182 L 265.6957391871191 497.7003264452651 L 261.99687516329055 491.0546103157783 L 258.54745528759383 484.596564320925 L 255.26378066398243 478.5969988292045 L 252.0429754233172 473.29441947718067 L 248.76995067137983 468.88283965857806 L 245.32549068484866 465.50210187183774 L 241.5949374498167 463.2312147933576 L 237.47690024246037 462.0850412282344 L 232.8914039428027 462.0144827531034 L 227.786914372124 462.9101108127534 L 222.14574002550523 464.60900249447866 L 215.98740371155293 466.9043630840369 L 209.3696992910229 469.55736674739876 L 202.38729063165522 472.31052969388463 L 195.16786343937503 474.9018533573685 L 187.86599634376998 477.07894250946833 L 180.65506582761418 478.6123162273262 L 173.71763097045937 479.3071870567288 L 167.23485013030202 479.0130817499595 L 161.37555567461112 477.6308095013562 L 156.28564964452227 475.1164425857353 L 152.07847996425053 471.4821501966245 L 148.82681307441706 466.79390866215556 L 146.5569367164443 461.16628939438 L 145.24531042935715 454.7546895706429 L 144.8180376606611 447.74551028741297 L 145.15327050256465 440.34489491187423 L 146.08648546756498 432.7667106901623 L 147.41839663634516 425.2204857511825 L 148.92511126014978 417.90000035394644 L 150.36999226629402 410.97317697439195 L 151.5165807677978 404.5738224442538 L 152.14185663769211 398.79565283710326 L 152.0490814153341 393.6888859307958 L 151.07947781159925 389.2595259515946 L 149.12205385060426 385.47130075995835 L 146.12097461819272 382.25005265583053 L 142.0800156172273 379.490240091253 L 137.06379161660865 377.06308728263207 L 131.19563461951256 374.82582898486453 L 124.65218391356328 372.63144355550526 L 117.6549391954135 370.33825170162487 L 110.4592035619209 367.8187813880563 L 103.34099643216356 364.9673593318133 L 96.58263814418919 361.70598210711495 L 90.45779076447434 357.9881389630309 L 85.21677847209216 353.8003962606214 L 81.07300316717598 349.16170113105807 L 78.19121681920342 344.1205101680936 L 76.67831431730494 338.7499883716801 L 76.577174551264 333.1416454515461 L 77.86391071378378 327.397873434875 L 80.4487027523727 321.62391537480477 L 84.18018615937362 315.9198258792347 L 88.85317316975099 310.37297844098936 L 94.21929623516726 305.0516327340316 L 99.99999999999997 300 L 105.90117628635096 295.23514132486673 L 111.62864434817999 290.7459087100222 L 116.90363116915026 286.49400043936765 L 121.47740657874851 282.4170592429805 L 125.1442754467322 278.43360335518855 L 127.75222146282357 274.4494556694014 L 129.21062872711855 270.36523286755966 L 129.4946710195044 266.0843813616422 L 128.64614481741265 261.5212050683101 L 126.77072025009028 256.6083242993159 L 124.03178291734972 251.30303597307156 L 120.6412275629273 245.59211120533004 L 116.8477313306218 239.4946631722568 L 112.92317036487083 233.06284003116826 L 109.147941270691 226.3802370876296 L 105.79600308192204 219.55807060946938 L 103.12046309907518 212.72930338286864 L 101.34049113401409 206.04104991051935 L 100.63026390456656 199.64570822941027 L 101.1105196424653 193.69135792543148 L 102.8431497059112 188.31202386804478 L 105.82907818829193 183.61842827430587 L 110.00949248478301 179.68983797595695 L 115.2702984412897 176.56755962926246 L 121.4494939715687 174.25054587711554 L 128.34699514144805 172.69345517741863 L 135.73631768920768 171.8073641216957 L 143.37742201855997 171.4631720857243 L 151.02997592984102 171.4975735086516 L 158.46627935545177 171.7213129730669 L 165.4831291587521 171.92929239258615 L 171.9119770960238 171.91197709602383 L 177.6268453887289 171.46745621379324 L 182.54960498677553 170.413458520172 L 186.65238285423874 168.59861159403064 L 189.9570366900195 165.9122612406406 L 192.53180809313812 162.29223845071382 L 194.48542807272463 157.73006915770145 L 195.95909246240257 152.27326179609537 L 197.11684096454502 146.0244713063081 L 198.13495570139114 139.1375164095854 L 199.19103888333635 131.81040935725974 L 200.4534324764312 124.27573325040015 L 202.07160597857796 116.78886100805673 L 204.16806442660436 109.61464260583085 L 206.83222260238193 103.01328524510143 L 210.11656002588006 97.22620853134131 L 214.03522311116132 92.46266974858881 L 218.56508514354442 88.88792169433881 L 223.64912119329531 86.61358872014921 L 229.20181315559478 85.6908296346231 L 235.11617842683526 86.10670536569455 L 241.27192158672344 87.7839931590047 L 247.54414737471194 90.58449755138685 L 253.81204864965818 94.3157123055135 L 259.9669960302581 98.74049815448595 L 265.91950530876034 103.58926948968858 L 271.60464103107296 108.57403897630562 L 276.9855243318965 113.40356089908232 L 282.05474301563453 117.79874818830936 L 286.83360357109876 121.50751849969532 L 291.36930919399515 124.31825271709405 L 295.7302857339127 126.07112337539616 L 299.99999999999994 126.66666666666666 L 304.26971426608725 126.07112337539616 L 308.6306908060048 124.31825271709405 L 313.1663964289012 121.50751849969544 L 317.9452569843654 117.79874818830933 L 323.01447566810344 113.40356089908246 L 328.3953589689269 108.57403897630581 L 334.0804946912396 103.58926948968858 L 340.0330039697418 98.74049815448612 L 346.18795135034173 94.3157123055135 L 352.455852625288 90.58449755138682 L 358.7280784132765 87.78399315900478 L 364.88382157316465 86.10670536569452 L 370.79818684440517 85.69082963462307 L 376.3508788067046 86.61358872014921 L 381.4349148564555 88.88792169433879 L 385.9647768888386 92.4626697485887 L 389.88343997411994 97.2262085313412 L 393.167777397618 103.01328524510137 L 395.83193557339564 109.61464260583071 L 397.928394021422 116.7888610080567 L 399.54656752356874 124.27573325040012 L 400.8089611166637 131.81040935725952 L 401.8650442986088 139.1375164095854 L 402.8831590354549 146.02447130630804 L 404.0409075375975 152.27326179609526 L 405.5145719272753 157.7300691577014 L 407.4681919068619 162.29223845071374 L 410.04296330998045 165.91226124064053 L 413.3476171457612 168.5986115940306 L 417.45039501322435 170.413458520172 L 422.37315461127105 171.4674562137932 L 428.08802290397614 171.9119770960238 L 434.51687084124774 171.9292923925862 L 441.5337206445482 171.72131297306683 L 448.97002407015873 171.4975735086516 L 456.6225779814398 171.46317208572427 L 464.2636823107921 171.80736412169568 L 471.653004858552 172.69345517741863 L 478.5505060284313 174.2505458771156 L 484.7297015587103 176.5675596292624 L 489.9905075152169 179.68983797595692 L 494.170921811708 183.6184282743058 L 497.15685029408877 188.3120238680447 L 498.8894803575347 193.69135792543136 L 499.3697360954334 199.64570822941022 L 498.65950886598597 206.04104991051915 L 496.8795369009249 212.7293033828684 L 494.203996918078 219.55807060946915 L 490.8520587293091 226.3802370876296 L 487.0768296351291 233.0628400311683 L 483.15226866937815 239.49466317225674 L 479.35877243707284 245.5921112053299 L 475.9682170826503 251.30303597307147 L 473.22927974990967 256.6083242993158 L 471.3538551825874 261.52120506831005 L 470.5053289804956 266.0843813616421 L 470.7893712728814 270.36523286755954 L 472.2477785371764 274.4494556694013 L 474.8557245532678 278.43360335518855 L 478.52259342125143 282.4170592429805 L 483.09636883084977 286.49400043936765 L 488.37135565182 290.74590871002215 L 494.09882371364887 295.2351413248667 L 499.99999999999994 299.99999999999994" fill-opacity="1"/></g></svg>