<svg version="1.1" xmlns="http://www.w3.org/2000/svg" xmlns:xlink="http://www.w3.org/1999/xlink" width="600" height="600" viewBox="0 0 600 600"><defs/><g><path fill="rgb(50,140,240)" stroke="none" paint-order="stroke fill markers" d=" M 500 300 L 505.3376970462605 305.04075752950564 L 510.22195610351787 310.3275424557411 L 514.3411877083169 315.8107558631506 L 517.4250755312293 321.41450081410824 L 519.2617561556758 327.04335825648474 L 519.7111543196197 332.59107104919104 L 518.7136062476687 337.9504107400803 L 516.2932215551547 343.0233967477087 L 512.5557882150091 347.7309983925017 L 507.68139091569685 352.0214802987751 L 501.91226573368886 355.87664922700696 L 495.5367293297355 359.31541836560183 L 488.87027746238414 362.39431178021493 L 482.2351282569929 365.20477151483817 L 475.93957847376 367.8673845091275 L 470.25854022585315 370.52339647139354 L 465.41653196274444 373.32410571263836 L 461.5742182322471 376.41891391602996 L 458.81934083007815 379.9429380838683 L 457.16257743528274 384.0051477938872 L 456.538524354003 388.67797870427626 L 456.81165129608775 393.9892867194481 L 457.7867423562258 399.9173526424894 L 459.22304145732664 406.38943496632453 L 460.85108246273387 413.28411363641294 L 462.39101974783784 420.4373885056568 L 463.57119469033034 427.65221323508024 L 464.1456817325768 434.71087960403725 L 463.9096525668016 441.3894386582642 L 462.71157069973367 447.4731714703624 L 460.46146782358016 452.7720173638521 L 457.13484026367723 457.13484026367723 L 452.77201736385217 460.46146782358016 L 447.4731714703624 462.71157069973367 L 441.3894386582642 463.9096525668016 L 434.71087960403725 464.1456817325768 L 427.65221323508024 463.57119469033034 L 420.4373885056568 462.39101974783784 L 413.284113636413 460.85108246273387 L 406.3894349663246 459.22304145732664 L 399.91735264248945 457.7867423562258 L 393.9892867194481 456.81165129608775 L 388.67797870427626 456.538524354003 L 384.00514779388726 457.16257743528274 L 379.9429380838683 458.81934083007815 L 376.41891391602996 461.57421823224706 L 373.32410571263836 465.41653196274444 L 370.52339647139354 470.25854022585315 L 367.8673845091275 475.93957847375987 L 365.20477151483817 482.2351282569929 L 362.39431178021493 488.87027746238414 L 359.31541836560183 495.5367293297355 L 355.87664922700696 501.91226573368886 L 352.02148029877515 507.68139091569685 L 347.73099839250165 512.5557882150091 L 343.0233967477087 516.2932215551547 L 337.9504107400803 518.7136062476687 L 332.59107104919104 519.7111543196197 L 327.0433582564848 519.2617561556758 L 321.41450081410824 517.4250755312293 L 315.8107558631506 514.3411877083169 L 310.3275424557411 510.22195610351787 L 305.04075752950564 505.3376970462605 L 300 500 L 295.22426612034076 494.5418304322212 L 290.7004727247739 489.29622637855107 L 286.38493042328366 484.57499496315927 L 282.20764468228396 480.6488151376495 L 278.0790881767983 477.7300576838081 L 273.89888126704636 475.9594496662927 L 269.5656552359598 475.39745070790775 L 264.9872679412574 476.02089060613747 L 260.0905023297538 477.72506380040227 L 254.82940833746957 480.3311103621207 L 249.19154623704765 483.5981605844871 L 243.20154746381692 487.23940496314805 L 236.92161562065837 490.94099477483053 L 230.44883015795017 494.3824978162154 L 223.90936989513222 497.2575410601356 L 217.45002352535766 499.2932727786615 L 211.2275801106424 500.2673703186679 L 205.3968765439172 500.0214990171303 L 200.09840622202563 498.47037964812796 L 195.44645306348815 495.60592830405926 L 191.51870181236262 491.4962720894816 L 188.34818904215948 486.27979270402113 L 185.91830468765056 480.1546837436571 L 184.1613417584837 473.36480346369154 L 182.96083706927485 466.18284279789964 L 182.15766670868345 458.8919928444202 L 181.55957700282954 451.7673763603122 L 180.95356593857906 445.05849961251806 L 180.12030147675353 438.9738860357923 L 178.84958953155507 433.66887944224993 L 176.9557994690254 429.23736535700664 L 174.2921277890582 425.7078722109418 L 170.76263464299342 423.0442005309746 L 166.33112055775004 421.150410468445 L 161.02611396420772 419.8796985232465 L 154.94150038748202 419.04643406142094 L 148.23262363968783 418.44042299717046 L 141.1080071555799 417.84233329131655 L 133.81715720210045 417.0391629307251 L 126.63519653630848 415.8386582415163 L 119.8453162563429 414.0816953123495 L 113.72020729597895 411.65181095784055 L 108.50372791051848 408.4812981876374 L 104.39407169594074 404.5535469365119 L 101.52962035187204 399.9015937779744 L 99.97850098286978 394.60312345608287 L 99.73262968133213 388.7724198893576 L 100.70672722133844 382.5499764746424 L 102.74245893986435 376.09063010486784 L 105.61750218378452 369.55116984204994 L 109.05900522516947 363.0783843793416 L 112.76059503685201 356.7984525361831 L 116.40183941551288 350.8084537629524 L 119.66888963787923 345.1705916625305 L 122.2749361995977 339.9094976702463 L 123.9791093938625 335.0127320587427 L 124.60254929209222 330.4343447640402 L 124.0405503337073 326.1011187329537 L 122.26994231619184 321.9209118232017 L 119.35118486235058 317.7923553177161 L 115.42500503684084 313.61506957671645 L 110.7037736214489 309.2995272752261 L 105.45816956777875 304.77573387965924 L 100.00000000000003 300 L 94.66230295373958 294.95924247049436 L 89.77804389648219 289.672457544259 L 85.65881229168315 284.1892441368494 L 82.57492446877069 278.58549918589176 L 80.73824384432419 272.95664174351526 L 80.28884568038029 267.408928950809 L 81.28639375233124 262.04958925991974 L 83.7067784448453 256.9766032522913 L 87.44421178499084 252.26900160749832 L 92.31860908430315 247.9785197012249 L 98.08773426631112 244.12335077299304 L 104.4632706702644 240.6845816343982 L 111.12972253761589 237.60568821978512 L 117.76487174300706 234.79522848516183 L 124.0604215262401 232.13261549087255 L 129.74145977414682 229.47660352860646 L 134.58346803725553 226.67589428736167 L 138.42578176775285 223.58108608397006 L 141.18065916992185 220.05706191613172 L 142.8374225647173 215.9948522061128 L 143.46147564599698 211.32202129572377 L 143.18834870391228 206.0107132805519 L 142.21325764377426 200.08264735751067 L 140.77695854267333 193.61056503367547 L 139.14891753726621 186.71588636358706 L 137.60898025216213 179.56261149434317 L 136.42880530966968 172.3477867649198 L 135.8543182674232 165.28912039596284 L 136.09034743319845 158.6105613417359 L 137.2884293002664 152.5268285296376 L 139.53853217641984 147.22798263614786 L 142.86515973632274 142.8651597363228 L 147.2279826361478 139.53853217641986 L 152.5268285296375 137.28842930026636 L 158.6105613417357 136.09034743319847 L 165.2891203959626 135.8543182674232 L 172.3477867649196 136.42880530966968 L 179.5626114943433 137.60898025216224 L 186.7158863635871 139.1489175372662 L 193.61056503367544 140.77695854267336 L 200.08264735751055 142.21325764377417 L 206.0107132805518 143.1883487039122 L 211.32202129572374 143.461475645997 L 215.99485220611274 142.8374225647173 L 220.05706191613166 141.18065916992185 L 223.58108608396998 138.42578176775294 L 226.6758942873616 134.58346803725567 L 229.4766035286064 129.74145977414696 L 232.13261549087252 124.06042152623996 L 234.79522848516186 117.76487174300706 L 237.60568821978507 111.12972253761586 L 240.68458163439817 104.46327067026454 L 244.12335077299304 98.08773426631126 L 247.97851970122485 92.31860908430315 L 252.26900160749827 87.44421178499096 L 256.9766032522912 83.70677844484536 L 262.0495892599196 81.28639375233132 L 267.40892895080884 80.28884568038029 L 272.9566417435153 80.73824384432416 L 278.5854991858918 82.57492446877075 L 284.1892441368494 85.65881229168318 L 289.6724575442589 89.77804389648213 L 294.9592424704943 94.66230295373944 L 299.99999999999994 99.99999999999989 L 304.7757338796592 105.45816956777878 L 309.29952727522607 110.70377362144882 L 313.6150695767163 115.42500503684067 L 317.79235531771593 119.3511848623505 L 321.9209118232016 122.26994231619179 L 326.1011187329537 124.04055033370733 L 330.43434476404025 124.60254929209219 L 335.01273205874264 123.9791093938625 L 339.90949767024625 122.2749361995977 L 345.1705916625304 119.66888963787932 L 350.8084537629523 116.401839415513 L 356.79845253618305 112.76059503685198 L 363.0783843793415 109.05900522516953 L 369.5511698420497 105.61750218378467 L 376.09063010486767 102.74245893986438 L 382.54997647464245 100.70672722133847 L 388.77241988935765 99.73262968133216 L 394.60312345608287 99.97850098286975 L 399.90159377797437 101.52962035187201 L 404.5535469365118 104.39407169594071 L 408.4812981876374 108.50372791051839 L 411.65181095784055 113.72020729597878 L 414.08169531234944 119.8453162563429 L 415.83865824151627 126.63519653630843 L 417.0391629307252 133.8171572021002 L 417.84233329131644 141.10800715557974 L 418.44042299717046 148.2326236396879 L 419.046434061421 154.94150038748205 L 419.8796985232465 161.0261139642078 L 421.15041046844493 166.33112055775 L 423.0442005309746 170.76263464299336 L 425.70787221094173 174.2921277890582 L 429.2373653570065 176.9557994690254 L 433.66887944224993 178.849589531555 L 438.97388603579213 180.1203014767535 L 445.0584996125178 180.95356593857906 L 451.7673763603121 181.55957700282943 L 458.8919928444202 182.15766670868345 L 466.18284279789964 182.96083706927487 L 473.3648034636915 184.16134175848367 L 480.1546837436571 185.9183046876505 L 486.279792704021 188.34818904215942 L 491.4962720894815 191.5187018123626 L 495.6059283040592 195.44645306348812 L 498.47037964812796 200.09840622202555 L 500.02149901713017 205.39687654391702 L 500.2673703186679 211.22758011064224 L 499.2932727786615 217.4500235253575 L 497.2575410601356 223.90936989513224 L 494.3824978162155 230.4488301579501 L 490.94099477483053 236.92161562065837 L 487.239404963148 243.20154746381687 L 483.5981605844871 249.19154623704756 L 480.3311103621208 254.8294083374695 L 477.7250638004024 260.0905023297537 L 476.02089060613747 264.9872679412573 L 475.3974507079078 269.5656552359597 L 475.95944966629264 273.89888126704625 L 477.7300576838082 278.07908817679834 L 480.6488151376495 282.207644682284 L 484.57499496315916 286.3849304232836 L 489.2962263785512 290.7004727247738 L 494.5418304322212 295.2242661203407 L 499.99999999999994 299.99999999999994" fill-opacity="1"/></g></svg>