<svg version="1.1" xmlns="http://www.w3.org/2000/svg" xmlns:xlink="http://www.w3.org/1999/xlink" width="600" height="600" viewBox="0 0 600 600"><defs/><g><path fill="rgb(60,80,240)" stroke="none" paint-order="stroke fill markers" d=" M 500 300 L 503.61688410566535 304.99851394290687 L 507.0867777996767 310.17352102220775 L 510.3834701284836 315.5188170757478 L 513.4812891939698 321.0260717632107 L 516.3553298379735 326.684884760998 L 518.9816747498078 332.4828629768139 L 521.3376069166849 338.40571804756735 L 523.4018114194371 344.4373831863441 L 525.1545646775312 350.5601482553689 L 526.5779093671224 356.7548117638716 L 527.6558133726273 363.0008483243365 L 528.3743112847139 369.27658994932887 L 528.7216271242235 375.55941943543286 L 528.688277150776 381.82597396210923 L 528.2671518049282 388.0523569326326 L 527.4535760319211 394.21435600268165 L 526.2453474413851 400.28766518041243 L 524.6427519688378 406.24810884055074 L 522.6485569194244 412.07186547459366 L 520.2679814900168 417.73568899981683 L 517.508645080458 423.21712547143727 L 514.3804939163269 428.4947230847843 L 510.89570671209594 433.5482334172676 L 507.0685803029549 438.35880194271135 L 502.9153963639834 442.909145952443 L 498.45427051492425 447.18371813741186 L 493.7049852758348 451.1688542224158 L 488.68880849175537 454.85290319591445 L 483.42829898177797 458.2263388454446 L 477.9471012882 461.28185148772343 L 472.2697315036618 464.01441897240375 L 466.4213562373095 466.4213562373095 L 460.42756684430367 468.50234289891284 L 454.3141510858054 470.2594285728336 L 448.1068644085134 471.6970158332181 L 441.83120303368264 472.82182093492634 L 435.51218102533903 473.6428126364485 L 429.17411346630183 474.17112967233106 L 422.84040780905343 474.41997762957965 L 416.53336538703894 474.40450618104546 L 410.2739949714371 474.1416678182755 L 404.08184013978956 473.65005940489453 L 397.9748220872548 472.9497480375617 L 391.96909935998104 472.0620828533082 L 386.0789458246322 471.00949455815373 L 380.3166480100441 469.81528457100075 L 374.69242276806705 468.5034057777697 L 369.21435600268165 467.09823697259367 L 363.8883630113682 465.6243531248348 L 358.7181707724544 464.10629365213254 L 353.7053222987839 462.5683309002296 L 348.84920296360036 461.0342410297509 L 344.1470884911014 459.52707948843124 L 339.5942140937391 458.06896320470986 L 335.1838640330626 456.68086157552847 L 330.9074806826892 455.38239823820027 L 326.75479198277463 454.19166551414435 L 322.71395599694387 453.1250532920874 L 318.7717211167749 452.1970939811695 L 314.9136003071881 451.42032501157644 L 311.124057649956 450.8051701933133 L 307.3867053233194 450.3598410641488 L 303.6845090545289 450.0902591673066 L 300 450 L 296.31549094547114 450.0902591673066 L 292.6132946766806 450.3598410641488 L 288.87594235004406 450.8051701933133 L 285.08639969281194 451.42032501157644 L 281.22827888322513 452.1970939811695 L 277.2860440030562 453.1250532920874 L 273.24520801722537 454.19166551414435 L 269.0925193173108 455.38239823820027 L 264.81613596693745 456.68086157552847 L 260.4057859062609 458.06896320470986 L 255.85291150889867 459.52707948843124 L 251.1507970363997 461.0342410297509 L 246.2946777012161 462.5683309002296 L 241.28182922754564 464.10629365213254 L 236.1116369886318 465.6243531248348 L 230.78564399731837 467.0982369725936 L 225.307577231933 468.5034057777697 L 219.683351989956 469.8152845710007 L 213.92105417536777 471.00949455815373 L 208.030900640019 472.0620828533082 L 202.02517791274528 472.9497480375617 L 195.91815986021044 473.65005940489453 L 189.72600502856295 474.1416678182755 L 183.46663461296117 474.40450618104546 L 177.15959219094657 474.41997762957965 L 170.82588653369817 474.17112967233106 L 164.48781897466102 473.6428126364485 L 158.16879696631742 472.8218209349264 L 151.89313559148675 471.6970158332181 L 145.6858489141946 470.2594285728336 L 139.5724331556963 468.50234289891284 L 133.57864376269052 466.4213562373095 L 127.73026849633834 464.01441897240375 L 122.05289871180011 461.2818514877235 L 116.57170101822197 458.2263388454446 L 111.3111915082446 454.85290319591445 L 106.29501472416518 451.1688542224159 L 101.54572948507578 447.1837181374119 L 97.08460363601662 442.90914595244305 L 92.93141969704507 438.35880194271135 L 89.10429328790408 433.5482334172676 L 85.61950608367312 428.49472308478437 L 82.49135491954206 423.2171254714373 L 79.73201850998319 417.7356889998169 L 77.35144308057559 412.0718654745938 L 75.35724803116216 406.24810884055074 L 73.75465255861494 400.28766518041243 L 72.54642396807895 394.21435600268165 L 71.73284819507182 388.0523569326326 L 71.31172284922397 381.8259739621093 L 71.27837287577663 375.55941943543286 L 71.62568871528597 369.27658994932887 L 72.34418662737261 363.0008483243366 L 73.42209063287763 356.75481176387166 L 74.8454353224688 350.560148255369 L 76.59818858056289 344.4373831863442 L 78.66239308331515 338.40571804756735 L 81.01832525019213 332.482862976814 L 83.64467016202647 326.684884760998 L 86.51871080603016 321.0260717632108 L 89.61652987151635 315.51881707574785 L 92.9132222003233 310.17352102220775 L 96.38311589433462 304.99851394290687 L 99.99999999999997 300 L 103.73735662718363 295.182022533742 L 107.5685953176077 290.5464512912406 L 111.46728745700756 286.0929916358808 L 115.40739852509108 281.8192156313865 L 119.3635159984895 277.7206146813115 L 123.3110707638954 273.79067319466924 L 127.2265499611083 270.0209625434469 L 131.0876992581449 266.4012543798928 L 134.87371266211977 262.919652192621 L 138.56540808930475 259.56273980256606 L 142.14538705445142 256.3157453343772 L 145.59817699183046 253.16271904754396 L 148.91035488700868 250.0867232758763 L 152.07065107756773 247.0700326052212 L 155.0700322710326 244.09434231863733 L 157.9017630274063 241.14098305664575 L 160.56144515997275 238.19113957841654 L 163.0470347194605 235.22607146843796 L 165.3588364412183 232.22733361275107 L 167.4994757506748 229.17699426941778 L 169.47384863697337 226.0578485795237 L 171.28904991621806 222.85362540749566 L 172.95428061221307 219.5491854624288 L 174.4807353819368 216.13070873487055 L 175.88147110334992 212.58586938530487 L 177.17125792266626 208.90399634043854 L 178.36641422519227 205.07621799016513 L 179.4846271466606 201.09558953045632 L 180.54476037918414 196.95720166393397 L 181.56665114621632 192.65826954891608 L 182.57089832307494 188.198201077577 L 183.5786437626905 183.57864376269055 L 184.6113489494769 178.80350971832613 L 185.69056914699797 173.87897843084994 L 186.8377272270026 168.81347723062436 L 188.0738893682244 163.61763958983173 L 189.41954479308828 158.30424158580615 L 190.8943916693285 152.88811708007302 L 192.51713124191534 147.38605236894617 L 194.30527217919803 141.8166612600274 L 196.2749470165982 136.20024171839265 L 198.4407424625009 130.55861540478574 L 200.81554519534112 124.9149515940772 L 203.4104046295819 119.29357711396622 L 206.23441396278952 113.71977407994768 L 209.2946106379312 108.21956732162351 L 212.59589716607104 102.81950349635758 L 216.14098305664564 97.5464239680791 L 219.93034839737294 92.42723359093918 L 223.9622294155664 87.48866757892421 L 228.2326261392273 82.75705866301496 L 232.73533206181537 78.25810673686732 L 237.46198550114195 74.0166531702553 L 242.40214213243348 70.05646192689233 L 247.5433679703146 66.40000956011713 L 252.8713518762378 63.068286076908066 L 258.370036478654 60.08060855856786 L 264.021766214799 57.454449306175036 L 269.80745103708847 55.20528014168548 L 275.7067441753639 53.34643434269768 L 281.69823221008903 51.88898752183724 L 287.7596355923522 50.841658582079845 L 293.868017645364 50.21073168882492 L 299.99999999999994 50 L 306.13198235463597 50.21073168882489 L 312.2403644076477 50.841658582079816 L 318.3017677899109 51.88898752183721 L 324.29325582463605 53.34643434269768 L 330.1925489629115 55.20528014168545 L 335.97823378520087 57.45444930617501 L 341.6299635213459 60.0806085585678 L 347.1286481237621 63.068286076908066 L 352.4566320296853 66.40000956011707 L 357.5978578675664 70.05646192689227 L 362.538014498858 74.01665317025524 L 367.2646679381845 78.25810673686726 L 371.76737386077264 82.75705866301493 L 376.03777058443353 87.48866757892418 L 380.069651602627 92.42723359093912 L 383.8590169433543 97.54642396807901 L 387.40410283392896 102.8195034963575 L 390.7053893620688 108.21956732162343 L 393.7655860372104 113.71977407994763 L 396.58959537041807 119.29357711396617 L 399.18445480465886 124.91495159407711 L 401.5592575374991 130.55861540478563 L 403.7250529834018 136.20024171839256 L 405.6947278208019 141.8166612600273 L 407.4828687580846 147.3860523689461 L 409.1056083306715 152.8881170800729 L 410.5804552069117 158.3042415858061 L 411.92611063177554 163.61763958983164 L 413.1622727729974 168.81347723062422 L 414.30943085300197 173.87897843084988 L 415.3886510505231 178.80350971832607 L 416.4213562373095 183.5786437626905 L 417.42910167692503 188.19820107757695 L 418.43334885378374 192.658269548916 L 419.4552396208158 196.95720166393386 L 420.51537285333933 201.0955895304562 L 421.6335857748077 205.07621799016496 L 422.8287420773337 208.90399634043854 L 424.1185288966501 212.58586938530487 L 425.5192646180632 216.1307087348705 L 427.0457193877869 219.54918546242874 L 428.7109500837819 222.8536254074956 L 430.5261513630266 226.05784857952364 L 432.50052424932517 229.17699426941772 L 434.64116355878167 232.227333612751 L 436.95296528053944 235.22607146843785 L 439.4385548400272 238.19113957841643 L 442.09823697259355 241.14098305664567 L 444.9299677289674 244.09434231863736 L 447.92934892243227 247.0700326052212 L 451.0896451129912 250.08672327587627 L 454.4018230081695 253.1627190475439 L 457.8546129455485 256.31574533437714 L 461.4345919106952 259.562739802566 L 465.1262873378803 262.9196521926209 L 468.91230074185506 266.40125437989275 L 472.7734500388915 270.0209625434468 L 476.6889292361045 273.7906731946691 L 480.63648400151044 277.72061468131153 L 484.592601474909 281.8192156313865 L 488.5327125429925 286.0929916358808 L 492.43140468239216 290.54645129124054 L 496.26264337281634 295.18202253374193 L 500 299.99999999999994" fill-opacity="1"/></g></svg>