<svg version="1.1" xmlns="http://www.w3.org/2000/svg" xmlns:xlink="http://www.w3.org/1999/xlink" width="600" height="600" viewBox="0 0 600 600"><defs/><g><path fill="rgb(240,70,100)" stroke="none" paint-order="stroke fill markers" d=" M 500 300 L 504.8347160349393 305.0284100387308 L 509.4665912264463 310.29043375890404 L 513.814886749433 315.7719335721088 L 517.8020186421332 321.451626470087 L 521.3550207532023 327.30153781971114 L 524.406915720603 333.28762145385036 L 526.8979663610666 339.3705319354506 L 528.7767823546028 345.5065313796548 L 530.0012601388513 351.6485101165816 L 530.5393374184036 357.7470978344536 L 530.3695475701585 363.75183971804796 L 529.4813634047321 369.6124105385168 L 527.8753241369119 375.27983869271196 L 525.5629439316359 380.70771185528656 L 522.5664049300046 385.8533362034375 L 518.9180421259883 390.6788220967489 L 514.6596317639987 395.15207062401964 L 509.84149896927323 399.24763753270094 L 504.52146402159167 402.9474536894925 L 498.7636499602193 406.2413843259624 L 492.63717699525773 409.1276128335403 L 486.21477143951415 411.6128387116962 L 479.5713185191309 413.71228335803744 L 472.7823894369382 415.4495016304152 L 465.9227734297252 416.85600141631977 L 459.06504527324813 417.9706777196905 L 452.278197754742 418.83907192609865 L 445.6263670737983 419.5124708428954 L 439.1676769839173 420.0468637447168 L 432.95322479667027 420.5017789064283 L 427.026229197589 420.93902390307665 L 421.4213562373095 421.4213562373095 L 416.16423594152656 422.0111125677422 L 411.2711778144369 422.76882591783794 L 406.74908918319727 423.7518607180471 L 402.5955959393764 425.0130953619296 L 398.7993608725062 426.5996811414138 L 395.34059055482174 428.5519049828233 L 392.19171771643175 430.90218136305657 L 389.31824233288773 433.6741961865523 L 386.6797113120994 436.8822223027776 L 384.2308137860022 440.53062280621845 L 381.92256664553804 444.6135543611189 L 379.70356315529637 449.11487861430453 L 377.52125628412153 454.0082853903534 L 375.3232478145118 459.25762689739895 L 373.0585543574027 464.81745770450203 L 370.6788220967489 470.6337708785264 L 368.1394634031666 476.6449164836903 L 365.4006903573465 482.7826847404068 L 362.42842266879455 488.9735325958522 L 359.19505040873133 495.13992935342105 L 355.68003533211606 501.2017944090596 L 351.8703382680458 507.07799810589205 L 347.76066402801007 512.6878952890439 L 343.35351942972045 517.9528603516789 L 338.6590842687928 522.7977924289074 L 333.694899297935 527.15255992228 L 328.4853794002637 530.9533547138083 L 323.0611640790024 534.143928230716 L 317.45832104344987 536.6766839128511 L 311.7174219702503 538.5136035637433 L 305.8825123870985 539.6269884719804 L 300 540 L 294.1174876129015 539.6269884719804 L 288.28257802974974 538.5136035637433 L 282.54167895655013 536.6766839128511 L 276.93883592099763 534.143928230716 L 271.51462059973636 530.9533547138083 L 266.305100702065 527.15255992228 L 261.34091573120725 522.7977924289074 L 256.64648057027955 517.9528603516789 L 252.23933597198993 512.6878952890439 L 248.12966173195417 507.0779981058921 L 244.319964667884 501.2017944090596 L 240.8049495912687 495.13992935342105 L 237.5715773312055 488.97353259585213 L 234.5993096426535 482.7826847404068 L 231.8605365968334 476.6449164836903 L 229.3211779032511 470.6337708785264 L 226.9414456425973 464.8174577045021 L 224.67675218548828 459.25762689739906 L 222.47874371587847 454.00828539035336 L 220.29643684470363 449.11487861430464 L 218.07743335446193 444.6135543611189 L 215.76918621399778 440.53062280621845 L 213.3202886879006 436.8822223027777 L 210.68175766711232 433.6741961865524 L 207.80828228356827 430.90218136305657 L 204.65940944517828 428.5519049828233 L 201.2006391274938 426.59968114141384 L 197.40440406062362 425.01309536192963 L 193.25091081680281 423.75186071804706 L 188.72882218556305 422.76882591783794 L 183.83576405847344 422.0111125677422 L 178.57864376269055 421.4213562373095 L 172.97377080241108 420.9390239030767 L 167.04677520332984 420.50177890642834 L 160.83232301608268 420.0468637447168 L 154.3736329262017 419.5124708428954 L 147.721802245258 418.83907192609865 L 140.93495472675193 417.9706777196905 L 134.07722657027486 416.85600141631977 L 127.21761056306175 415.4495016304152 L 120.42868148086907 413.71228335803744 L 113.7852285604859 411.6128387116962 L 107.3628230047423 409.1276128335403 L 101.23635003978075 406.2413843259624 L 95.47853597840839 402.94745368949253 L 90.15850103072677 399.24763753270094 L 85.34036823600124 395.15207062401964 L 81.08195787401172 390.67882209674895 L 77.43359506999542 385.85333620343755 L 74.43705606836417 380.70771185528656 L 72.12467586308807 375.2798386927119 L 70.51863659526788 369.6124105385168 L 69.63045242984145 363.751839718048 L 69.46066258159635 357.74709783445365 L 69.99873986114866 351.64851011658163 L 71.22321764539723 345.5065313796549 L 73.10203363893339 339.3705319354506 L 75.593084279397 333.28762145385036 L 78.64497924679765 327.3015378197112 L 82.19798135786675 321.451626470087 L 86.18511325056699 315.7719335721089 L 90.5334087735537 310.29043375890404 L 95.16528396506075 305.0284100387308 L 99.99999999999997 300 L 104.95518855645753 295.2119186295659 L 109.94840874437728 290.6633640279369 L 114.89870407795681 286.3461081322418 L 119.72812797325449 282.2447703382627 L 124.36320691371833 278.3372677400247 L 128.73631173469056 274.5954316717057 L 132.78690940549004 270.98577643133007 L 136.46267019331057 267.4704025732035 L 139.72040812343988 264.0080140538337 L 142.52683614058606 260.55502587314805 L 144.85912125198254 257.06673672808864 L 146.70522911184855 253.49853963673192 L 148.06405189969723 249.8071425331554 L 148.94531785842756 245.9517704983985 L 149.36928539610903 241.89532158944223 L 149.3662291214736 237.605449150713 L 148.9757294825865 233.05554502202375 L 148.24578171989592 228.2256001605882 L 147.23174354338553 223.10292182764985 L 145.99514422087736 217.68268959556332 L 144.60238055177317 211.96833594162672 L 143.1233274394053 205.97174103440761 L 141.62989241924808 199.7132354031986 L 140.19454451592006 193.22140842257437 L 138.88884816909177 186.53272484918168 L 137.78203268099014 179.69095592271717 L 136.9396267040995 172.74643569384796 L 136.4221857287035 165.7551571774373 L 136.2841383813235 158.77772656320624 L 136.57277465468658 151.87819696762097 L 137.32739601700226 145.12280600825 L 138.57864376269046 138.57864376269052 L 140.3480180466998 132.3122793871555 L 142.64759587562955 126.3883757758544 L 145.47995200168646 120.86832211545334 L 148.8382822739181 115.8089140168349 L 152.7067246402554 111.26111009077138 L 157.06086875784843 107.26889239056533 L 161.8684411492936 103.86825610242306 L 167.09014912504682 101.08635126553426 L 172.68066335726053 98.94079620289477 L 178.5897161087135 97.43917880610957 L 184.7632897536244 96.57875791763433 L 191.14486842489725 96.34637287496258 L 197.6767244222788 96.71856491214723 L 204.30121044239883 97.66190964802169 L 210.9620287554066 99.13355542308975 L 217.60544915071284 101.08195787401164 L 224.1814487891714 103.44779694979485 L 230.64474900045855 106.16505866719851 L 236.95572650923793 109.16226035863752 L 243.08117950694637 112.36379506053743 L 248.99493234215663 115.69136809088351 L 254.67826630674023 119.06549682807446 L 260.1201679652621 122.40704327363244 L 265.31739062326903 125.6387481903866 L 270.2743287646722 128.68673547333094 L 275.00270951579023 131.4819559363676 L 279.52110932057724 133.96154087432427 L 283.85430794717814 136.07003756183732 L 288.0324956035829 137.760501241375 L 292.09035223928305 138.99542108167432 L 296.06602097793353 139.74746099349872 L 299.99999999999994 140 L 303.9339790220664 139.74746099349872 L 307.90964776071684 138.99542108167432 L 311.96750439641704 137.76050124137504 L 316.1456920528218 136.07003756183727 L 320.4788906794227 133.96154087432433 L 324.9972904842097 131.48195593636763 L 329.72567123532775 128.68673547333086 L 334.68260937673085 125.63874819038662 L 339.8798320347378 122.4070432736325 L 345.3217336932597 119.06549682807452 L 351.00506765784326 115.69136809088371 L 356.91882049305354 112.36379506053748 L 363.04427349076195 109.16226035863758 L 369.3552509995414 106.16505866719854 L 375.81855121082856 103.44779694979476 L 382.39455084928704 101.08195787401169 L 389.0379712445933 99.1335554230898 L 395.6987895576011 97.6619096480216 L 402.3232755777211 96.71856491214723 L 408.8551315751027 96.34637287496258 L 415.2367102463755 96.57875791763436 L 421.4102838912864 97.43917880610962 L 427.31933664273936 98.94079620289477 L 432.9098508749531 101.08635126553423 L 438.1315588507063 103.86825610242303 L 442.93913124215146 107.26889239056527 L 447.29327535974454 111.26111009077133 L 451.16171772608186 115.80891401683485 L 454.52004799831343 120.86832211545328 L 457.3524041243704 126.38837577585434 L 459.6519819533002 132.3122793871554 L 461.4213562373095 138.5786437626904 L 462.67260398299777 145.1228060082498 L 463.42722534531345 151.87819696762088 L 463.7158616186765 158.777726563206 L 463.5778142712965 165.75515717743704 L 463.0603732959005 172.74643569384773 L 462.21796731900986 179.6909559227172 L 461.1111518309083 186.53272484918165 L 459.80545548407986 193.22140842257437 L 458.3701075807519 199.71323540319852 L 456.8766725605947 205.9717410344075 L 455.39761944822686 211.9683359416266 L 454.00485577912275 217.6826895955632 L 452.7682564566145 223.10292182764977 L 451.7542182801041 228.22560016058802 L 451.0242705174136 233.05554502202358 L 450.6337708785264 237.6054491507129 L 450.63071460389097 241.8953215894423 L 451.05468214157247 245.95177049839853 L 451.93594810030277 249.80714253315534 L 453.29477088815145 253.49853963673186 L 455.14087874801737 257.0667367280886 L 457.47316385941394 260.555025873148 L 460.27959187656006 264.0080140538336 L 463.5373298066894 267.47040257320344 L 467.2130905945098 270.98577643133 L 471.26368826530927 274.59543167170557 L 475.6367930862817 278.3372677400247 L 480.27187202674554 282.2447703382627 L 485.1012959220431 286.34610813224185 L 490.0515912556227 290.66336402793684 L 495.0448114435424 295.21191862956584 L 499.99999999999994 299.99999999999994" fill-opacity="1"/></g></svg>