<?xml version="1.0" encoding="UTF-8"?>
<svg id="Layer_2" data-name="Layer 2" xmlns="http://www.w3.org/2000/svg" viewBox="0 0 48.51 21.44">
  <defs>
    <style>
      .cls-1 {
        fill: #fff;
      }
    </style>
  </defs>
  <g id="App_icon" data-name="App icon">
    <g>
      <path class="cls-1" d="M4.34,13.12c-.8,0-1.53-.2-2.18-.59s-1.18-.91-1.57-1.57-.59-1.38-.59-2.18.2-1.53.59-2.18.91-1.18,1.57-1.57,1.38-.59,2.18-.59,1.53.2,2.18.59,1.18.91,1.57,1.57.59,1.38.59,2.18-.2,1.53-.59,2.18-.91,1.18-1.57,1.57-1.38.59-2.18.59Z"/>
      <path class="cls-1" d="M12.13,21.44c-.18,0-.32-.06-.42-.18-.1-.12-.14-.27-.12-.45l.81-5.1c.04-.26.14-.48.29-.67.15-.19.37-.29.67-.29h2.76c.16,0,.29.06.39.17.1.11.15.25.15.4,0,.14-.03.27-.09.39l-1.92,4.98c-.08.2-.19.38-.34.52s-.37.23-.65.23h-1.53Z"/>
      <path class="cls-1" d="M18.83,16.73l-3.37-10.34L24.25,0l8.79,6.39-3.37,10.34h-10.84ZM20.43,14.53h7.65l2.39-7.31-6.21-4.51-6.21,4.51,2.39,7.31Z"/>
      <path class="cls-1" d="M32.05,21.44c-.18,0-.32-.06-.42-.18-.1-.12-.14-.27-.12-.45l.81-5.1c.04-.26.14-.48.29-.67s.38-.29.67-.29h2.76c.16,0,.29.06.39.17.1.11.15.25.15.4,0,.14-.03.27-.09.39l-1.92,4.98c-.08.2-.19.38-.34.52s-.37.23-.65.23h-1.53Z"/>
      <path class="cls-1" d="M44.17,13.12c-.8,0-1.53-.2-2.18-.59s-1.18-.91-1.57-1.57-.59-1.38-.59-2.18.2-1.53.59-2.18.91-1.18,1.57-1.57,1.38-.59,2.18-.59,1.53.2,2.18.59,1.18.91,1.57,1.57.59,1.38.59,2.18-.2,1.53-.59,2.18-.91,1.18-1.57,1.57-1.38.59-2.18.59Z"/>
    </g>
  </g>
</svg>