<?xml version="1.0" encoding="UTF-8"?>
<svg id="Layer_2" data-name="Layer 2" xmlns="http://www.w3.org/2000/svg" viewBox="0 0 53.22 21.44">
  <defs>
    <style>
      .cls-1 {
        fill: #fff;
      }
    </style>
  </defs>
  <g id="App_icon" data-name="App icon">
    <g>
      <path class="cls-1" d="M14.16,21.44c-.18,0-.32-.06-.42-.18-.1-.12-.14-.27-.12-.45l.81-5.1c.04-.26.14-.48.29-.67.15-.19.37-.29.67-.29h2.76c.16,0,.29.06.39.17.1.11.15.25.15.4,0,.14-.03.27-.09.39l-1.92,4.98c-.08.2-.19.38-.34.52s-.37.23-.65.23h-1.53Z"/>
      <path class="cls-1" d="M20.86,16.73l-3.37-10.34L26.28,0l8.79,6.39-3.37,10.34h-10.84ZM22.46,14.53h7.65l2.39-7.31-6.21-4.51-6.21,4.51,2.39,7.31Z"/>
      <path class="cls-1" d="M34.08,21.44c-.18,0-.32-.06-.42-.18-.1-.12-.14-.27-.12-.45l.81-5.1c.04-.26.14-.48.29-.67s.38-.29.67-.29h2.76c.16,0,.29.06.39.17.1.11.15.25.15.4,0,.14-.03.27-.09.39l-1.92,4.98c-.08.2-.19.38-.34.52s-.37.23-.65.23h-1.53Z"/>
      <g>
        <path class="cls-1" d="M7.9,13.28l-1.4-2.49c-.22-.4-.8-.4-1.02,0l-1.4,2.49c-.1.18-.3.3-.51.3H.59c-.46,0-.74-.5-.5-.89L5.49,3.87c.23-.37.77-.37,1,0l5.4,8.81c.24.39-.04.89-.5.89h-2.98c-.21,0-.41-.11-.51-.3Z"/>
        <path class="cls-1" d="M49.14,13.28l-1.4-2.49c-.22-.4-.8-.4-1.02,0l-1.4,2.49c-.1.18-.3.3-.51.3h-2.98c-.46,0-.74-.5-.5-.89l5.4-8.81c.23-.37.77-.37,1,0l5.4,8.81c.24.39-.04.89-.5.89h-2.98c-.21,0-.41-.11-.51-.3Z"/>
      </g>
    </g>
  </g>
</svg>