<?xml version="1.0" encoding="UTF-8"?>
<svg id="Layer_2" data-name="Layer 2" xmlns="http://www.w3.org/2000/svg" xmlns:xlink="http://www.w3.org/1999/xlink" viewBox="0 0 182.82 181.11">
  <defs>
    <style>
      .cls-1 {
        fill: #fff;
      }

      .cls-2 {
        fill: url(#linear-gradient);
      }
    </style>
    <linearGradient id="linear-gradient" x1="14.03" y1="113.54" x2="155.32" y2="45.97" gradientUnits="userSpaceOnUse">
      <stop offset="0" stop-color="#2d82f0"/>
      <stop offset="1" stop-color="#89fffa"/>
    </linearGradient>
  </defs>
  <g id="Layer_1-2" data-name="Layer 1">
    <g>
      <g>
        <path class="cls-1" d="M0,64.26v-22.79L41.48,0h22.79v22.79l-41.48,41.48H0"/>
        <path class="cls-1" d="M64.26,64.26h-21.42l21.42-21.42v21.42Z"/>
        <path class="cls-1" d="M0,0h21.42L0,21.42V0Z"/>
      </g>
      <g>
        <path class="cls-2" d="M159.21,79.27l1.16,1.87.99,1.92.71,1.96.36,1.96-.05,1.94-.48,1.89-.87,1.81-1.21,1.71-1.45,1.62-1.58,1.53-1.59,1.47-1.49,1.44-1.29,1.45-1.02,1.51-.71,1.61-.4,1.73-.12,1.87.09,2,.2,2.11.21,2.18.11,2.19-.09,2.14-.37,2.02-.7,1.84-1.06,1.62-1.4,1.37-1.7,1.12-1.93.89-2.07.71-2.12.59-2.07.56-1.94.61-1.75.74-1.53.93-1.3,1.17-1.09,1.43-.93,1.67-.83,1.87-.8,1.99-.85,2.03-.96,1.96-1.13,1.79-1.33,1.53-1.55,1.2-1.75.83-1.93.45-2.06.1-2.14-.19-2.16-.39-2.13-.47-2.07-.45-1.97-.31-1.86-.09-1.76.21-1.68.53-1.62.85-1.6,1.12-1.61,1.32-1.65,1.41-1.71,1.38-1.78,1.23-1.85.97-1.9.62-1.93.21-1.93-.21-1.9-.62-1.85-.97-1.78-1.23-1.71-1.38-1.65-1.41-1.61-1.32-1.6-1.12-1.62-.85-1.68-.53-1.76-.21-1.86.09-1.97.31-2.07.45-2.13.47-2.16.39-2.14.19-2.06-.1-1.93-.45-1.75-.83-1.55-1.2-1.33-1.53-1.13-1.79-.96-1.96-.85-2.03-.8-1.99-.83-1.87-.93-1.67-1.09-1.43-1.3-1.17-1.53-.93-1.75-.74-1.94-.61-2.07-.56-2.12-.59-2.07-.71-1.93-.89-1.7-1.12-1.4-1.37-1.06-1.62-.7-1.84-.37-2.02-.09-2.14.11-2.19.21-2.18.2-2.11.09-2-.12-1.87-.4-1.73-.71-1.61-1.02-1.51-1.29-1.45-1.49-1.44-1.59-1.47-1.58-1.53-1.45-1.62-1.21-1.71-.87-1.81-.48-1.89-.05-1.94.36-1.96.71-1.96.99-1.92,1.16-1.87,1.2-1.81,1.12-1.76.94-1.72.67-1.71.35-1.72.02-1.77-.29-1.83-.53-1.91-.69-1.99-.73-2.06-.65-2.1-.46-2.1-.18-2.06.18-1.98.58-1.85.97-1.69,1.33-1.52,1.62-1.35,1.82-1.2,1.91-1.09,1.89-1.04,1.77-1.05,1.56-1.12,1.31-1.25,1.03-1.42.76-1.62.53-1.82.38-1.99.3-2.11.33-2.17.44-2.14.63-2.03.88-1.84,1.17-1.58,1.46-1.27,1.73-.95,1.95-.63,2.1-.36,2.19-.17,2.19-.06,2.13-.05,2.01-.14,1.85-.33,1.68-.58,1.52-.87,1.39-1.17,1.29-1.44,1.25-1.64,1.26-1.75,1.32-1.76,1.42-1.65,1.54-1.43,1.68-1.11,1.81-.73,1.91-.32,1.99.09,2.03.45,2.03.73,2,.91,1.95.97,1.89.91,1.83.74,1.78.48,1.76.17,1.76-.17,1.78-.48,1.83-.74,1.89-.91,1.95-.97,2-.91,2.03-.73,2.03-.45,1.99-.09,1.91.32,1.81.73,1.68,1.11,1.54,1.43,1.42,1.65,1.32,1.76,1.26,1.75,1.25,1.64,1.29,1.44,1.39,1.17,1.52.87,1.68.58,1.85.33,2.01.14,2.13.05,2.19.06,2.19.17,2.1.36,1.95.63,1.73.95,1.46,1.27,1.17,1.58.88,1.84.63,2.03.44,2.14.33,2.17.3,2.11.38,1.99.53,1.82.76,1.62,1.03,1.42,1.31,1.25,1.56,1.12,1.77,1.05,1.89,1.04,1.91,1.09,1.82,1.2,1.62,1.35,1.33,1.52.97,1.69.58,1.85.18,1.98-.18,2.06-.46,2.1-.65,2.1-.73,2.06-.69,1.99-.53,1.91-.29,1.83.02,1.77.35,1.72.67,1.71.94,1.72,1.12,1.76,1.2,1.81"/>
        <path class="cls-1" d="M171.23,99.96h-42.2v-42.2h42.2v42.2"/>
        <path class="cls-1" d="M113.26,148.42l-.63,6.38-1.86,6.13-3.02,5.65-4.07,4.95-4.95,4.07-5.65,3.02-6.13,1.86-6.38.63-6.38-.63-6.13-1.86-5.65-3.02-4.95-4.07-4.07-4.95-3.02-5.65-1.86-6.13-.63-6.38.63-6.38,1.86-6.13,3.02-5.65,4.07-4.95,4.95-4.07,5.65-3.02,6.13-1.86,6.38-.63,6.38.63,6.13,1.86,5.65,3.02,4.95,4.07,4.07,4.95,3.02,5.65,1.86,6.13.63,6.38M96.92,148.42l-.31-3.19-.93-3.07-1.51-2.83-2.03-2.48-2.48-2.03-2.83-1.51-3.07-.93-3.19-.31-3.19.31-3.07.93-2.83,1.51-2.48,2.03-2.03,2.48-1.51,2.83-.93,3.07-.31,3.19.31,3.19.93,3.07,1.51,2.83,2.03,2.48,2.48,2.03,2.83,1.51,3.07.93,3.19.31,3.19-.31,3.07-.93,2.83-1.51,2.48-2.03,2.03-2.48,1.51-2.83.93-3.07.31-3.19"/>
        <path class="cls-1" d="M182.82,115.72h-65.39v65.39h65.39v-65.39h0M171.23,127.32v42.2h-42.2v-42.2h42.2"/>
      </g>
    </g>
  </g>
</svg>