<?xml version="1.0" encoding="UTF-8"?>
<svg id="Layer_2" data-name="Layer 2" xmlns="http://www.w3.org/2000/svg" viewBox="0 0 258.67 258.67">
  <defs>
    <style>
      .cls-1 {
        fill: #3d3b96;
      }
    </style>
  </defs>
  <g id="Layer_1-2" data-name="Layer 1">
    <g>
      <g>
        <path class="cls-1" d="M125.33,40.44v84.89H40.44L125.33,40.44Z"/>
        <path class="cls-1" d="M0,84.89V0h84.89L0,84.89Z"/>
      </g>
      <path class="cls-1" d="M258.67,62.67l-1.2,12.23-3.57,11.76-5.79,10.83-7.79,9.5-9.5,7.79-10.83,5.79-11.76,3.57-12.23,1.2-12.23-1.2-11.76-3.57-10.83-5.79-9.5-7.79-7.79-9.5-5.79-10.83-3.57-11.76-1.2-12.23,1.2-12.23,3.57-11.76,5.79-10.83,7.79-9.5,9.5-7.79,10.83-5.79,11.76-3.57,12.23-1.2,12.23,1.2,11.76,3.57,10.83,5.79,9.5,7.79,7.79,9.5,5.79,10.83,3.57,11.76,1.2,12.23M227.33,62.67l-.6-6.11-1.78-5.88-2.9-5.42-3.9-4.75-4.75-3.9-5.42-2.9-5.88-1.78-6.11-.6-6.11.6-5.88,1.78-5.42,2.9-4.75,3.9-3.9,4.75-2.9,5.42-1.78,5.88-.6,6.11.6,6.11,1.78,5.88,2.9,5.42,3.9,4.75,4.75,3.9,5.42,2.9,5.88,1.78,6.11.6,6.11-.6,5.88-1.78,5.42-2.9,4.75-3.9,3.9-4.75,2.9-5.42,1.78-5.88.6-6.11"/>
      <path class="cls-1" d="M0,133.33h125.33v125.33H0v-125.33Z"/>
      <g>
        <path class="cls-1" d="M258.67,133.33c0,34.61-28.06,62.67-62.67,62.67s-62.67-28.06-62.67-62.67h125.33Z"/>
        <path class="cls-1" d="M133.33,258.67c0-34.61,28.06-62.67,62.67-62.67s62.67,28.06,62.67,62.67h-125.33Z"/>
      </g>
    </g>
  </g>
</svg>